<svg xmlns="http://www.w3.org/2000/svg" xmlns:xlink="http://www.w3.org/1999/xlink" width="99" height="99" viewBox="0 0 99 99">
  <defs>
    <clipPath id="clip-path">
      <rect id="Rect치ngulo_295712" data-name="Rect치ngulo 295712" width="91.895" height="92.626" fill="#fb8c00"/>
    </clipPath>
  </defs>
  <g id="Grupo_889280" data-name="Grupo 889280" transform="translate(-1064 -2464)">
    <rect id="Rect치ngulo_295711" data-name="Rect치ngulo 295711" width="99" height="99" transform="translate(1064 2464)" fill="none"/>
    <g id="Grupo_889279" data-name="Grupo 889279" transform="translate(1068 2467)">
      <g id="Grupo_889278" data-name="Grupo 889278" clip-path="url(#clip-path)">
        <path id="Trazado_600891" data-name="Trazado 600891" d="M1.8,0C3.08,1.233,4.37,2.451,5.629,3.7c2.63,2.612,5.241,5.245,7.866,7.862a1.371,1.371,0,0,1,.31,1.93c-.536.777-1.442.769-2.244-.028q-3.622-3.6-7.228-7.22Q2.544,4.454.757,2.66C-.293,1.6-.255.936.9,0Z" transform="translate(0)" fill="#fb8c00"/>
        <path id="Trazado_600892" data-name="Trazado 600892" d="M121.125,0c1.153.934,1.194,1.612.145,2.663Q115.938,8.006,110.6,13.34c-.211.21-.456.541-.69.545a2.881,2.881,0,0,1-1.553-.283,1.1,1.1,0,0,1-.212-1.547,4.148,4.148,0,0,1,.652-.743Q114,6.1,119.213.892c.317-.316.671-.6,1.008-.892Z" transform="translate(-30.13)" fill="#fb8c00"/>
        <path id="Trazado_600893" data-name="Trazado 600893" d="M99.838,0a1.783,1.783,0,0,1,.689,2.273c-.488,1.581-.886,3.19-1.336,4.783C98.9,8.1,98.3,8.524,97.454,8.324c-.817-.194-1.157-.913-.884-1.945.439-1.658.851-3.327,1.375-4.959A5.864,5.864,0,0,1,98.934,0Z" transform="translate(-26.935)" fill="#fb8c00"/>
        <path id="Trazado_600894" data-name="Trazado 600894" d="M26.928,0a5.843,5.843,0,0,1,.989,1.42c.529,1.661.952,3.358,1.392,5.046.249.959-.12,1.675-.908,1.859-.825.192-1.429-.208-1.705-1.183-.469-1.65-.879-3.317-1.38-4.957A1.738,1.738,0,0,1,26.023,0Z" transform="translate(-7.033)" fill="#fb8c00"/>
        <path id="Trazado_600895" data-name="Trazado 600895" d="M15.347,64.288c.148-.827.246-1.667.456-2.477a5.85,5.85,0,0,0-1.6-5.966c-3.641-3.689-3.63-8.676.022-12.387a5.789,5.789,0,0,0,1.583-5.884c-1.31-5.05,1.136-9.317,6.17-10.734a5.881,5.881,0,0,0,4.355-4.383,8.362,8.362,0,0,1,10.672-6.149,5.824,5.824,0,0,0,5.963-1.594,8.389,8.389,0,0,1,12.388.025,5.775,5.775,0,0,0,5.883,1.583c5.061-1.308,9.35,1.161,10.731,6.173a5.839,5.839,0,0,0,4.468,4.374,8.345,8.345,0,0,1,6.129,10.387,6.189,6.189,0,0,0,1.773,6.492A8.3,8.3,0,0,1,84.323,55.6a6.192,6.192,0,0,0-1.744,6.5A8.349,8.349,0,0,1,76.5,72.448a5.916,5.916,0,0,0-4.553,4.506,8.359,8.359,0,0,1-10.564,6.089,5.892,5.892,0,0,0-6.115,1.629,8.351,8.351,0,0,1-12.189.039,5.947,5.947,0,0,0-6.189-1.659,8.351,8.351,0,0,1-10.514-6.045,6.014,6.014,0,0,0-4.6-4.58,8.488,8.488,0,0,1-6.432-8.139m64.865-29.27a5.66,5.66,0,0,0-4.256-5.453,8.785,8.785,0,0,1-6.71-6.714,5.538,5.538,0,0,0-6.962-3.984,8.749,8.749,0,0,1-9.091-2.441,5.58,5.58,0,0,0-8.1.017,8.664,8.664,0,0,1-9.007,2.433,5.566,5.566,0,0,0-7.032,4,8.818,8.818,0,0,1-6.646,6.673,5.579,5.579,0,0,0-4.032,7.094,8.58,8.58,0,0,1-2.356,8.861,5.633,5.633,0,0,0-.008,8.3,8.568,8.568,0,0,1,2.39,8.77,5.659,5.659,0,0,0,4.246,7.289,8.4,8.4,0,0,1,6.3,6.308,5.655,5.655,0,0,0,7.294,4.236,8.539,8.539,0,0,1,8.7,2.338,5.673,5.673,0,0,0,8.439-.022A8.417,8.417,0,0,1,62,80.408a5.7,5.7,0,0,0,7.366-4.262A8.336,8.336,0,0,1,75.6,69.888a5.721,5.721,0,0,0,4.284-7.433,8.459,8.459,0,0,1,2.294-8.547,6.779,6.779,0,0,0,1.473-2.131,5.445,5.445,0,0,0-1.33-6.229,8.594,8.594,0,0,1-2.395-8.935c.141-.518.19-1.062.282-1.594" transform="translate(-3.206 -3.349)" fill="#fb8c00"/>
        <path id="Trazado_600896" data-name="Trazado 600896" d="M1.644,123.063c-1.26-.013-1.908-1.053-1.47-1.933a1.986,1.986,0,0,1,.376-.5q5.554-5.567,11.13-11.114a1.8,1.8,0,0,1,1.107-.493,1.316,1.316,0,0,1,1.127,1.951,3.224,3.224,0,0,1-.576.689Q8,117,2.656,122.33a6.656,6.656,0,0,1-1.012.733" transform="translate(-0.01 -30.437)" fill="#fb8c00"/>
        <path id="Trazado_600897" data-name="Trazado 600897" d="M122.057,121.51a1.389,1.389,0,0,1-2.019,1.4,3.642,3.642,0,0,1-.68-.588c-3.56-3.557-7.13-7.105-10.659-10.693a2.291,2.291,0,0,1-.631-1.469,1.334,1.334,0,0,1,.865-.976,2.013,2.013,0,0,1,1.506.436c2.263,2.168,4.459,4.4,6.676,6.62,1.428,1.428,2.865,2.847,4.271,4.3a5.872,5.872,0,0,1,.672.976" transform="translate(-30.17 -30.477)" fill="#fb8c00"/>
        <path id="Trazado_600898" data-name="Trazado 600898" d="M26.9,125.248c-1.229.017-1.919-.768-1.7-1.636.486-1.925,1.013-3.841,1.569-5.748a1.345,1.345,0,1,1,2.585.748c-.487,1.863-.963,3.732-1.551,5.564-.155.484-.7.842-.9,1.072" transform="translate(-7.023 -32.632)" fill="#fb8c00"/>
        <path id="Trazado_600899" data-name="Trazado 600899" d="M100.7,123.828a1.384,1.384,0,0,1-1.14,1.4,1.183,1.183,0,0,1-1.452-.8c-.6-1.986-1.144-3.99-1.654-6a1.263,1.263,0,0,1,1.008-1.488,1.281,1.281,0,0,1,1.621.938c.427,1.442.8,2.9,1.2,4.351.149.551.292,1.1.422,1.6" transform="translate(-26.918 -32.638)" fill="#fb8c00"/>
        <path id="Trazado_600900" data-name="Trazado 600900" d="M117.429,29.246c-.845-.05-1.341-.346-1.509-1.016a1.178,1.178,0,0,1,.732-1.556q3.019-.914,6.087-1.661a1.189,1.189,0,0,1,1.43.963,1.145,1.145,0,0,1-.665,1.509c-2.058.662-4.151,1.212-6.074,1.761" transform="translate(-32.347 -6.973)" fill="#fb8c00"/>
        <path id="Trazado_600901" data-name="Trazado 600901" d="M1.547,24.988c.584.156,1.31.347,2.035.541,1.277.344,2.563.66,3.828,1.047a1.317,1.317,0,0,1,.915,1.714,1.334,1.334,0,0,1-1.654.889c-1.891-.493-3.773-1.019-5.65-1.563A1.249,1.249,0,0,1,.054,26.1c.125-.7.61-1.081,1.494-1.112" transform="translate(-0.007 -6.976)" fill="#fb8c00"/>
        <path id="Trazado_600902" data-name="Trazado 600902" d="M1.642,101.878c-.982-.035-1.453-.416-1.594-1.117a1.18,1.18,0,0,1,.8-1.453q2.976-.9,6-1.654a1.193,1.193,0,0,1,1.465.909,1.166,1.166,0,0,1-.661,1.587c-2.06.654-4.153,1.2-6,1.729" transform="translate(-0.005 -27.252)" fill="#fb8c00"/>
        <path id="Trazado_600903" data-name="Trazado 600903" d="M124.236,100.228c-.03,1.126-.726,1.791-1.536,1.6-2.016-.479-4.019-1.025-6-1.618a1.192,1.192,0,0,1-.765-1.616,1.209,1.209,0,0,1,1.535-.925c1.953.488,3.9,1,5.818,1.621.445.143.747.727.952.939" transform="translate(-32.345 -27.254)" fill="#fb8c00"/>
        <path id="Trazado_600904" data-name="Trazado 600904" d="M81.917,52.814A29.678,29.678,0,1,1,47.859,23.488c.328-.048.655-.123.983-.138a1.324,1.324,0,0,1,1.483,1.145,1.355,1.355,0,0,1-1.179,1.549c-1.444.3-2.913.5-4.328.9a26.889,26.889,0,1,0,12.314-.635c-.5-.1-1.011-.161-1.519-.234-1.038-.147-1.618-.735-1.512-1.539.111-.84.8-1.291,1.827-1.158A29.635,29.635,0,0,1,81.917,52.814" transform="translate(-6.297 -6.518)" fill="#fb8c00"/>
        <path id="Trazado_600905" data-name="Trazado 600905" d="M51.713,57.924a7.248,7.248,0,0,1,.644-.9q6.32-6.34,12.656-12.665c2.185-2.184,4.538-2.182,6.71,0,1.021,1.025,2.061,2.032,3.06,3.079a4.135,4.135,0,0,1-.043,6.061c-3.585,3.619-7.2,7.207-10.8,10.814a1.436,1.436,0,0,1-1.847.454,1.313,1.313,0,0,1-.283-2.147c.737-.8,1.527-1.542,2.294-2.31q4.22-4.22,8.439-8.441c1.09-1.092,1.093-1.739.014-2.828q-1.4-1.413-2.816-2.811c-1.041-1.022-1.737-1.021-2.764,0Q60.037,53.164,53.1,60.1c-1.264,1.264-1.738,1.266-2.983.022q-2.463-2.461-4.925-4.922c-1.058-1.052-1.72-1.054-2.761-.019-1.091,1.083-2.183,2.166-3.26,3.262a1.524,1.524,0,0,0,.007,2.5q4.689,4.711,9.4,9.4a3.736,3.736,0,0,0,5.49-.013c1.039-1.007,2.043-2.05,3.076-3.063a1.368,1.368,0,1,1,1.927,1.891c-1.1,1.119-2.188,2.248-3.332,3.317a6.364,6.364,0,0,1-8.842-.01c-3.358-3.247-6.646-6.567-9.922-9.9a4.069,4.069,0,0,1-.03-5.722q1.922-2.038,3.959-3.97a4.133,4.133,0,0,1,5.862.07c.8.776,1.581,1.574,2.366,2.365S50.7,56.9,51.713,57.924" transform="translate(-9.991 -11.926)" fill="#fb8c00"/>
      </g>
    </g>
  </g>
</svg>
