<svg xmlns="http://www.w3.org/2000/svg" width="84.412" height="109.256" viewBox="0 0 84.412 109.256">
  <g id="Grupo_889132" data-name="Grupo 889132" transform="translate(0 87.955) rotate(-90)">
    <rect id="Rectángulo_45220" data-name="Rectángulo 45220" width="101.085" height="48.731" transform="translate(87.955 48.731) rotate(180)" fill="#e4e4e4"/>
    <g id="Grupo_152581" data-name="Grupo 152581" transform="translate(-21.883 36.304)">
      <g id="Grupo_152556" data-name="Grupo 152556" transform="translate(0 26.044)">
        <rect id="Rectángulo_45221" data-name="Rectángulo 45221" width="4.203" height="4.203" transform="translate(89.304 17.861)" fill="#fb8c00"/>
        <rect id="Rectángulo_45222" data-name="Rectángulo 45222" width="4.203" height="4.203" transform="translate(80.374 17.861)" fill="#fb8c00"/>
        <rect id="Rectángulo_45223" data-name="Rectángulo 45223" width="4.203" height="4.203" transform="translate(71.443 17.861)" fill="#fb8c00"/>
        <rect id="Rectángulo_45224" data-name="Rectángulo 45224" width="4.202" height="4.203" transform="translate(62.513 17.861)" fill="#fb8c00"/>
        <rect id="Rectángulo_45225" data-name="Rectángulo 45225" width="4.203" height="4.203" transform="translate(53.582 17.861)" fill="#fb8c00"/>
        <rect id="Rectángulo_45226" data-name="Rectángulo 45226" width="4.202" height="4.203" transform="translate(44.652 17.861)" fill="#fb8c00"/>
        <rect id="Rectángulo_45232" data-name="Rectángulo 45232" width="4.203" height="4.203" transform="translate(89.304 8.93)" fill="#fb8c00"/>
        <rect id="Rectángulo_45233" data-name="Rectángulo 45233" width="4.203" height="4.203" transform="translate(80.374 8.93)" fill="#fb8c00"/>
        <rect id="Rectángulo_45234" data-name="Rectángulo 45234" width="4.203" height="4.203" transform="translate(71.443 8.93)" fill="#fb8c00"/>
        <rect id="Rectángulo_45235" data-name="Rectángulo 45235" width="4.202" height="4.203" transform="translate(62.513 8.93)" fill="#fb8c00"/>
        <rect id="Rectángulo_45236" data-name="Rectángulo 45236" width="4.203" height="4.203" transform="translate(53.582 8.93)" fill="#fb8c00"/>
        <rect id="Rectángulo_45237" data-name="Rectángulo 45237" width="4.202" height="4.203" transform="translate(44.652 8.93)" fill="#fb8c00"/>
        <rect id="Rectángulo_45243" data-name="Rectángulo 45243" width="4.203" height="4.203" transform="translate(89.304)" fill="#fb8c00"/>
        <rect id="Rectángulo_45244" data-name="Rectángulo 45244" width="4.203" height="4.203" transform="translate(80.374)" fill="#fb8c00"/>
        <rect id="Rectángulo_45245" data-name="Rectángulo 45245" width="4.203" height="4.203" transform="translate(71.443)" fill="#fb8c00"/>
        <rect id="Rectángulo_45246" data-name="Rectángulo 45246" width="4.202" height="4.203" transform="translate(62.513)" fill="#fb8c00"/>
        <rect id="Rectángulo_45247" data-name="Rectángulo 45247" width="4.203" height="4.203" transform="translate(53.582)" fill="#fb8c00"/>
        <rect id="Rectángulo_45248" data-name="Rectángulo 45248" width="4.202" height="4.203" transform="translate(44.652)" fill="#fb8c00"/>
      </g>
      <g id="Grupo_152580" data-name="Grupo 152580">
        <rect id="Rectángulo_45221-2" data-name="Rectángulo 45221" width="4.203" height="4.203" transform="translate(89.304 17.861)" fill="#fb8c00"/>
        <rect id="Rectángulo_45222-2" data-name="Rectángulo 45222" width="4.203" height="4.203" transform="translate(80.374 17.861)" fill="#fb8c00"/>
        <rect id="Rectángulo_45223-2" data-name="Rectángulo 45223" width="4.203" height="4.203" transform="translate(71.443 17.861)" fill="#fb8c00"/>
        <rect id="Rectángulo_45224-2" data-name="Rectángulo 45224" width="4.202" height="4.203" transform="translate(62.513 17.861)" fill="#fb8c00"/>
        <rect id="Rectángulo_45225-2" data-name="Rectángulo 45225" width="4.203" height="4.203" transform="translate(53.582 17.861)" fill="#fb8c00"/>
        <rect id="Rectángulo_45226-2" data-name="Rectángulo 45226" width="4.202" height="4.203" transform="translate(44.652 17.861)" fill="#fb8c00"/>
        <rect id="Rectángulo_45232-2" data-name="Rectángulo 45232" width="4.203" height="4.203" transform="translate(89.304 8.93)" fill="#fb8c00"/>
        <rect id="Rectángulo_45233-2" data-name="Rectángulo 45233" width="4.203" height="4.203" transform="translate(80.374 8.93)" fill="#fb8c00"/>
        <rect id="Rectángulo_45234-2" data-name="Rectángulo 45234" width="4.203" height="4.203" transform="translate(71.443 8.93)" fill="#fb8c00"/>
        <rect id="Rectángulo_45235-2" data-name="Rectángulo 45235" width="4.202" height="4.203" transform="translate(62.513 8.93)" fill="#fb8c00"/>
        <rect id="Rectángulo_45236-2" data-name="Rectángulo 45236" width="4.203" height="4.203" transform="translate(53.582 8.93)" fill="#fb8c00"/>
        <rect id="Rectángulo_45237-2" data-name="Rectángulo 45237" width="4.202" height="4.203" transform="translate(44.652 8.93)" fill="#fb8c00"/>
        <rect id="Rectángulo_45243-2" data-name="Rectángulo 45243" width="4.203" height="4.203" transform="translate(89.304)" fill="#fb8c00"/>
        <rect id="Rectángulo_45244-2" data-name="Rectángulo 45244" width="4.203" height="4.203" transform="translate(80.374)" fill="#fb8c00"/>
        <rect id="Rectángulo_45245-2" data-name="Rectángulo 45245" width="4.203" height="4.203" transform="translate(71.443)" fill="#fb8c00"/>
        <rect id="Rectángulo_45246-2" data-name="Rectángulo 45246" width="4.202" height="4.203" transform="translate(62.513)" fill="#fb8c00"/>
        <rect id="Rectángulo_45247-2" data-name="Rectángulo 45247" width="4.203" height="4.203" transform="translate(53.582)" fill="#fb8c00"/>
        <rect id="Rectángulo_45248-2" data-name="Rectángulo 45248" width="4.202" height="4.203" transform="translate(44.652)" fill="#fb8c00"/>
      </g>
    </g>
    <g id="Grupo_889133" data-name="Grupo 889133" transform="translate(-74.883 36.304)">
      <rect id="Rectángulo_45221-3" data-name="Rectángulo 45221" width="4.203" height="4.203" transform="translate(89.304 43.905)" fill="#fb8c00"/>
      <rect id="Rectángulo_45222-3" data-name="Rectángulo 45222" width="4.203" height="4.203" transform="translate(80.374 43.905)" fill="#fb8c00"/>
      <rect id="Rectángulo_45223-3" data-name="Rectángulo 45223" width="4.203" height="4.203" transform="translate(71.443 43.905)" fill="#fb8c00"/>
      <rect id="Rectángulo_45224-3" data-name="Rectángulo 45224" width="4.202" height="4.203" transform="translate(62.513 43.905)" fill="#fb8c00"/>
      <rect id="Rectángulo_45225-3" data-name="Rectángulo 45225" width="4.203" height="4.203" transform="translate(53.583 43.905)" fill="#fb8c00"/>
      <rect id="Rectángulo_45232-3" data-name="Rectángulo 45232" width="4.203" height="4.203" transform="translate(89.304 34.975)" fill="#fb8c00"/>
      <rect id="Rectángulo_45233-3" data-name="Rectángulo 45233" width="4.203" height="4.203" transform="translate(80.374 34.975)" fill="#fb8c00"/>
      <rect id="Rectángulo_45234-3" data-name="Rectángulo 45234" width="4.203" height="4.203" transform="translate(71.443 34.975)" fill="#fb8c00"/>
      <rect id="Rectángulo_45235-3" data-name="Rectángulo 45235" width="4.202" height="4.203" transform="translate(62.513 34.975)" fill="#fb8c00"/>
      <rect id="Rectángulo_45236-3" data-name="Rectángulo 45236" width="4.203" height="4.203" transform="translate(53.583 34.975)" fill="#fb8c00"/>
      <rect id="Rectángulo_45243-3" data-name="Rectángulo 45243" width="4.203" height="4.203" transform="translate(89.304 26.044)" fill="#fb8c00"/>
      <rect id="Rectángulo_45244-3" data-name="Rectángulo 45244" width="4.203" height="4.203" transform="translate(80.374 26.044)" fill="#fb8c00"/>
      <rect id="Rectángulo_45245-3" data-name="Rectángulo 45245" width="4.203" height="4.203" transform="translate(71.443 26.044)" fill="#fb8c00"/>
      <rect id="Rectángulo_45246-3" data-name="Rectángulo 45246" width="4.202" height="4.203" transform="translate(62.513 26.044)" fill="#fb8c00"/>
      <rect id="Rectángulo_45247-3" data-name="Rectángulo 45247" width="4.203" height="4.203" transform="translate(53.583 26.044)" fill="#fb8c00"/>
      <rect id="Rectángulo_45221-4" data-name="Rectángulo 45221" width="4.203" height="4.203" transform="translate(89.304 17.861)" fill="#fb8c00"/>
      <rect id="Rectángulo_45222-4" data-name="Rectángulo 45222" width="4.203" height="4.203" transform="translate(80.374 17.861)" fill="#fb8c00"/>
      <rect id="Rectángulo_45223-4" data-name="Rectángulo 45223" width="4.203" height="4.203" transform="translate(71.443 17.861)" fill="#fb8c00"/>
      <rect id="Rectángulo_45224-4" data-name="Rectángulo 45224" width="4.202" height="4.203" transform="translate(62.513 17.861)" fill="#fb8c00"/>
      <rect id="Rectángulo_45225-4" data-name="Rectángulo 45225" width="4.203" height="4.203" transform="translate(53.583 17.861)" fill="#fb8c00"/>
      <rect id="Rectángulo_45232-4" data-name="Rectángulo 45232" width="4.203" height="4.203" transform="translate(89.304 8.931)" fill="#fb8c00"/>
      <rect id="Rectángulo_45233-4" data-name="Rectángulo 45233" width="4.203" height="4.203" transform="translate(80.374 8.931)" fill="#fb8c00"/>
      <rect id="Rectángulo_45234-4" data-name="Rectángulo 45234" width="4.203" height="4.203" transform="translate(71.443 8.931)" fill="#fb8c00"/>
      <rect id="Rectángulo_45235-4" data-name="Rectángulo 45235" width="4.202" height="4.203" transform="translate(62.513 8.931)" fill="#fb8c00"/>
      <rect id="Rectángulo_45236-4" data-name="Rectángulo 45236" width="4.203" height="4.203" transform="translate(53.583 8.931)" fill="#fb8c00"/>
      <rect id="Rectángulo_45243-4" data-name="Rectángulo 45243" width="4.203" height="4.203" transform="translate(89.304)" fill="#fb8c00"/>
      <rect id="Rectángulo_45244-4" data-name="Rectángulo 45244" width="4.203" height="4.203" transform="translate(80.374)" fill="#fb8c00"/>
      <rect id="Rectángulo_45245-4" data-name="Rectángulo 45245" width="4.203" height="4.203" transform="translate(71.443)" fill="#fb8c00"/>
      <rect id="Rectángulo_45246-4" data-name="Rectángulo 45246" width="4.202" height="4.203" transform="translate(62.513)" fill="#fb8c00"/>
      <rect id="Rectángulo_45247-4" data-name="Rectángulo 45247" width="4.203" height="4.203" transform="translate(53.583)" fill="#fb8c00"/>
    </g>
  </g>
</svg>
