<svg xmlns="http://www.w3.org/2000/svg" xmlns:xlink="http://www.w3.org/1999/xlink" width="73" height="73" viewBox="0 0 73 73">
  <defs>
    <clipPath id="clip-path">
      <rect id="Rect치ngulo_295678" data-name="Rect치ngulo 295678" width="64.951" height="65.467" fill="#9edce1"/>
    </clipPath>
  </defs>
  <g id="Grupo_889222" data-name="Grupo 889222" transform="translate(105 9464)">
    <rect id="Rect치ngulo_295651" data-name="Rect치ngulo 295651" width="73" height="73" transform="translate(-105 -9464)" fill="none"/>
    <g id="Grupo_889221" data-name="Grupo 889221" transform="translate(-101 -9460)">
      <g id="Grupo_889220" data-name="Grupo 889220" clip-path="url(#clip-path)">
        <path id="Trazado_600835" data-name="Trazado 600835" d="M1.275,0c.9.871,1.814,1.732,2.7,2.616,1.859,1.846,3.7,3.707,5.56,5.557a.969.969,0,0,1,.219,1.364c-.379.549-1.019.544-1.586-.02q-2.56-2.546-5.109-5.1Q1.8,3.148.535,1.88C-.207,1.134-.18.662.636,0Z" transform="translate(0)" fill="#9edce1"/>
        <path id="Trazado_600836" data-name="Trazado 600836" d="M117.254,0c.815.66.844,1.14.1,1.882q-3.769,3.776-7.545,7.546c-.149.149-.322.383-.488.385a2.036,2.036,0,0,1-1.1-.2.775.775,0,0,1-.15-1.093A2.931,2.931,0,0,1,108.538,8Q112.217,4.31,115.9.631c.224-.224.474-.421.712-.631Z" transform="translate(-52.94)" fill="#9edce1"/>
        <path id="Trazado_600837" data-name="Trazado 600837" d="M98.853,0a1.26,1.26,0,0,1,.487,1.607c-.345,1.117-.626,2.254-.945,3.38-.208.737-.632,1.037-1.228.9-.578-.137-.818-.645-.625-1.375.31-1.172.6-2.351.972-3.5a4.144,4.144,0,0,1,.7-1Z" transform="translate(-47.325)" fill="#9edce1"/>
        <path id="Trazado_600838" data-name="Trazado 600838" d="M26.419,0a4.13,4.13,0,0,1,.7,1c.374,1.174.673,2.373.984,3.567.176.678-.085,1.184-.641,1.314-.583.136-1.01-.147-1.205-.836-.332-1.166-.622-2.345-.976-3.5A1.228,1.228,0,0,1,25.779,0Z" transform="translate(-12.357)" fill="#9edce1"/>
        <path id="Trazado_600839" data-name="Trazado 600839" d="M14.214,48.955c.1-.584.174-1.178.322-1.751a4.135,4.135,0,0,0-1.128-4.217,5.924,5.924,0,0,1,.015-8.755,4.092,4.092,0,0,0,1.119-4.159A5.909,5.909,0,0,1,18.9,22.487a4.157,4.157,0,0,0,3.078-3.1,5.91,5.91,0,0,1,7.543-4.346,4.116,4.116,0,0,0,4.215-1.127,5.929,5.929,0,0,1,8.756.017,4.082,4.082,0,0,0,4.158,1.119,5.907,5.907,0,0,1,7.584,4.363A4.127,4.127,0,0,0,57.4,22.507a5.9,5.9,0,0,1,4.332,7.341,4.374,4.374,0,0,0,1.253,4.588,5.867,5.867,0,0,1-.016,8.379,4.376,4.376,0,0,0-1.232,4.594,5.9,5.9,0,0,1-4.3,7.312,4.181,4.181,0,0,0-3.218,3.185,5.908,5.908,0,0,1-7.466,4.3,4.165,4.165,0,0,0-4.322,1.151,5.9,5.9,0,0,1-8.615.028,4.2,4.2,0,0,0-4.374-1.172,5.9,5.9,0,0,1-7.431-4.272,4.251,4.251,0,0,0-3.249-3.237,6,6,0,0,1-4.546-5.753M60.06,28.267a4,4,0,0,0-3.008-3.854,6.209,6.209,0,0,1-4.743-4.745,3.914,3.914,0,0,0-4.92-2.816,6.184,6.184,0,0,1-6.425-1.726,3.944,3.944,0,0,0-5.726.012,6.124,6.124,0,0,1-6.366,1.72,3.934,3.934,0,0,0-4.97,2.829A6.232,6.232,0,0,1,19.2,24.4a3.943,3.943,0,0,0-2.849,5.014,6.064,6.064,0,0,1-1.665,6.263,3.981,3.981,0,0,0-.006,5.868,6.056,6.056,0,0,1,1.689,6.2,4,4,0,0,0,3,5.152,5.94,5.94,0,0,1,4.456,4.458,4,4,0,0,0,5.155,2.994A6.035,6.035,0,0,1,35.135,62a4.01,4.01,0,0,0,5.965-.015,5.949,5.949,0,0,1,6.089-1.64,4.027,4.027,0,0,0,5.206-3.012A5.892,5.892,0,0,1,56.8,52.913a4.044,4.044,0,0,0,3.028-5.254,5.979,5.979,0,0,1,1.621-6.041,4.792,4.792,0,0,0,1.041-1.506,3.849,3.849,0,0,0-.94-4.4,6.074,6.074,0,0,1-1.692-6.315c.1-.366.135-.751.2-1.127" transform="translate(-5.633 -5.884)" fill="#9edce1"/>
        <path id="Trazado_600840" data-name="Trazado 600840" d="M1.172,118.946c-.891-.009-1.349-.744-1.039-1.366a1.4,1.4,0,0,1,.266-.354q3.926-3.935,7.867-7.855a1.275,1.275,0,0,1,.783-.348.93.93,0,0,1,.8,1.379,2.279,2.279,0,0,1-.407.487q-3.77,3.775-7.55,7.54a4.7,4.7,0,0,1-.715.518" transform="translate(-0.018 -53.478)" fill="#9edce1"/>
        <path id="Trazado_600841" data-name="Trazado 600841" d="M117.955,117.891a.981.981,0,0,1-1.427.988,2.575,2.575,0,0,1-.48-.416c-2.516-2.514-5.039-5.022-7.534-7.558a1.619,1.619,0,0,1-.446-1.038.943.943,0,0,1,.611-.69,1.422,1.422,0,0,1,1.064.308c1.6,1.532,3.152,3.113,4.718,4.679,1.009,1.009,2.025,2.012,3.019,3.036a4.151,4.151,0,0,1,.475.69" transform="translate(-53.011 -53.549)" fill="#9edce1"/>
        <path id="Trazado_600842" data-name="Trazado 600842" d="M26.386,122.8c-.869.012-1.356-.543-1.2-1.156.343-1.361.716-2.715,1.109-4.063a.951.951,0,1,1,1.827.529c-.344,1.317-.681,2.638-1.1,3.933-.11.342-.495.6-.637.758" transform="translate(-12.34 -57.335)" fill="#9edce1"/>
        <path id="Trazado_600843" data-name="Trazado 600843" d="M99.444,121.8a.978.978,0,0,1-.806.991.836.836,0,0,1-1.026-.566c-.425-1.4-.809-2.82-1.169-4.242a.893.893,0,0,1,.712-1.052.905.905,0,0,1,1.146.663c.3,1.019.567,2.049.845,3.075.105.39.206.781.3,1.13" transform="translate(-47.297 -57.346)" fill="#9edce1"/>
        <path id="Trazado_600844" data-name="Trazado 600844" d="M116.97,27.994c-.6-.036-.948-.245-1.066-.718a.832.832,0,0,1,.517-1.1q2.134-.646,4.3-1.174a.841.841,0,0,1,1.011.681.81.81,0,0,1-.47,1.066c-1.455.468-2.934.857-4.293,1.245" transform="translate(-56.835 -12.252)" fill="#9edce1"/>
        <path id="Trazado_600845" data-name="Trazado 600845" d="M1.1,24.988c.413.11.926.245,1.438.383.9.243,1.812.466,2.705.74a.931.931,0,0,1,.647,1.212.943.943,0,0,1-1.169.629c-1.336-.348-2.667-.72-3.993-1.1a.883.883,0,0,1-.684-1.072c.088-.5.431-.764,1.056-.786" transform="translate(-0.013 -12.257)" fill="#9edce1"/>
        <path id="Trazado_600846" data-name="Trazado 600846" d="M1.165,100.628c-.694-.025-1.027-.294-1.126-.789A.834.834,0,0,1,.6,98.812q2.1-.64,4.239-1.169a.843.843,0,0,1,1.036.642.824.824,0,0,1-.467,1.121c-1.456.462-2.936.85-4.244,1.222" transform="translate(-0.008 -47.883)" fill="#9edce1"/>
        <path id="Trazado_600847" data-name="Trazado 600847" d="M121.779,99.464c-.021.8-.513,1.266-1.086,1.13-1.425-.338-2.84-.724-4.244-1.143a.843.843,0,0,1-.541-1.142.855.855,0,0,1,1.085-.654c1.381.345,2.758.71,4.112,1.146.314.1.528.514.673.663" transform="translate(-56.832 -47.887)" fill="#9edce1"/>
        <path id="Trazado_600848" data-name="Trazado 600848" d="M64.512,44.174A20.976,20.976,0,1,1,40.44,23.446c.232-.034.463-.087.695-.1a.936.936,0,0,1,1.048.81.958.958,0,0,1-.833,1.095c-1.02.209-2.059.354-3.059.634a19,19,0,1,0,8.7-.449c-.355-.069-.715-.114-1.073-.165-.734-.1-1.144-.52-1.069-1.088.078-.594.569-.912,1.291-.819A20.946,20.946,0,0,1,64.512,44.174" transform="translate(-11.064 -11.453)" fill="#9edce1"/>
        <path id="Trazado_600849" data-name="Trazado 600849" d="M47.044,53.465a5.125,5.125,0,0,1,.455-.639q4.467-4.481,8.945-8.951a3.008,3.008,0,0,1,4.743,0c.721.724,1.457,1.436,2.163,2.176a2.923,2.923,0,0,1-.031,4.284c-2.534,2.558-5.09,5.094-7.632,7.643a1.015,1.015,0,0,1-1.306.321.928.928,0,0,1-.2-1.518c.521-.562,1.079-1.09,1.621-1.632q2.983-2.983,5.965-5.966c.77-.772.772-1.229.01-2q-.99-1-1.99-1.987c-.736-.722-1.228-.722-1.953,0q-4.906,4.9-9.808,9.806c-.894.893-1.228.9-2.108.016q-1.741-1.739-3.481-3.479c-.748-.744-1.216-.745-1.952-.013-.771.766-1.543,1.531-2.3,2.305a1.077,1.077,0,0,0,.005,1.769q3.314,3.33,6.645,6.641a2.64,2.64,0,0,0,3.881-.009c.734-.712,1.444-1.449,2.174-2.165a.967.967,0,1,1,1.362,1.337C51.471,62.2,50.7,63,49.892,63.753a4.5,4.5,0,0,1-6.249-.007c-2.373-2.3-4.7-4.642-7.013-7a2.876,2.876,0,0,1-.021-4.044q1.359-1.441,2.8-2.806a2.921,2.921,0,0,1,4.144.049c.566.549,1.117,1.112,1.673,1.672s1.107,1.121,1.821,1.844" transform="translate(-17.555 -20.954)" fill="#9edce1"/>
      </g>
    </g>
  </g>
</svg>
