<svg xmlns="http://www.w3.org/2000/svg" xmlns:xlink="http://www.w3.org/1999/xlink" width="74.588" height="73.467" viewBox="0 0 74.588 73.467">
  <defs>
    <clipPath id="clip-path">
      <rect id="Rect치ngulo_295679" data-name="Rect치ngulo 295679" width="74.588" height="73.467" fill="#b2ebf2"/>
    </clipPath>
  </defs>
  <g id="Grupo_889225" data-name="Grupo 889225" transform="translate(420 9457)">
    <rect id="Rect치ngulo_295652" data-name="Rect치ngulo 295652" width="73" height="73" transform="translate(-420 -9457)" fill="none"/>
    <g id="Grupo_889224" data-name="Grupo 889224" transform="translate(-420 -9457)">
      <g id="Grupo_889223" data-name="Grupo 889223" clip-path="url(#clip-path)">
        <path id="Trazado_600850" data-name="Trazado 600850" d="M117.264,73.523c-.827,1.47-1.473,1.719-3.1,1.194-.922-.3-1.849-.581-2.763-.9a1.963,1.963,0,1,1,1.2-3.734,23.517,23.517,0,0,1,3.231,1.092,6.293,6.293,0,0,1,1.429,1.329Z" transform="translate(-42.676 -27.162)" fill="#b2ebf2"/>
        <path id="Trazado_600851" data-name="Trazado 600851" d="M73,25.329A4.952,4.952,0,0,1,71.356,29q-5.666,5.5-11.322,11.02a1.615,1.615,0,0,0-.54,1.608c.929,5.277,1.821,10.559,2.711,15.843a4.645,4.645,0,0,1-1.882,4.743,4.591,4.591,0,0,1-5.139.469c-2.959-1.505-5.886-3.075-8.826-4.618-1.8-.947-3.615-1.874-5.4-2.852a1.731,1.731,0,0,0-1.833-.007q-7,3.72-14.03,7.379a4.845,4.845,0,0,1-7.082-2.87A6.591,6.591,0,0,1,17.933,57c.828-5.121,1.714-10.233,2.625-15.341a1.674,1.674,0,0,0-.568-1.669C16.244,36.358,12.524,32.7,8.77,29.074A4.949,4.949,0,0,1,11.619,20.4c5.187-.724,10.364-1.517,15.549-2.252a1.63,1.63,0,0,0,1.363-1.017q3.483-7.118,7.005-14.218A4.9,4.9,0,0,1,41.758.325a4.985,4.985,0,0,1,2.783,2.627c2.321,4.719,4.661,9.429,6.971,14.154a1.672,1.672,0,0,0,1.421,1.04c5.258.738,10.51,1.521,15.765,2.285a4.9,4.9,0,0,1,4.3,4.9M57.263,59.3A1.05,1.05,0,0,0,58.3,57.94c-.882-5.137-1.734-10.28-2.664-15.409a5.554,5.554,0,0,1,1.717-5.4c3.716-3.559,7.38-7.174,11.062-10.767a3.153,3.153,0,0,0,.49-.534c.416-.66.03-1.364-.857-1.5-5.181-.77-10.359-1.559-15.549-2.267a5.433,5.433,0,0,1-4.51-3.2c-2.145-4.429-4.345-8.83-6.523-13.241-.182-.37-.349-.748-.557-1.1a.968.968,0,0,0-1.787.021c-.1.167-.176.345-.262.519-2.285,4.629-4.583,9.253-6.848,13.892a5.136,5.136,0,0,1-4.059,3.05c-2.734.4-5.472.791-8.207,1.189-2.616.38-5.233.754-7.845,1.153a.952.952,0,0,0-.82,1.377,2.478,2.478,0,0,0,.518.6q5.628,5.493,11.262,10.98a5.052,5.052,0,0,1,1.6,4.742c-.9,5.233-1.782,10.469-2.686,15.7-.087.506-.15.967.3,1.325.493.388.951.161,1.416-.084,4.591-2.416,9.2-4.8,13.77-7.252a5.394,5.394,0,0,1,5.464-.023c4.575,2.444,9.178,4.837,13.772,7.247.275.144.568.254.752.335" transform="translate(-2.731 0)" fill="#b2ebf2"/>
        <path id="Trazado_600852" data-name="Trazado 600852" d="M57.777,111.617c0-.654-.045-1.312.01-1.961a1.886,1.886,0,0,1,1.946-1.765,1.838,1.838,0,0,1,1.9,1.728,39.152,39.152,0,0,1,0,3.993,1.846,1.846,0,0,1-1.9,1.732,1.889,1.889,0,0,1-1.947-1.765c-.055-.649-.01-1.307-.01-1.961" transform="translate(-22.419 -41.877)" fill="#b2ebf2"/>
        <path id="Trazado_600853" data-name="Trazado 600853" d="M4.919,69.969a2.133,2.133,0,0,1,2.334,1.467,1.857,1.857,0,0,1-1.006,2.2,38.14,38.14,0,0,1-4,1.307,1.846,1.846,0,0,1-2.094-1.2,1.764,1.764,0,0,1,.707-2.293c1.431-.633,2.943-1.079,4.061-1.476" transform="translate(0 -27.158)" fill="#b2ebf2"/>
        <path id="Trazado_600854" data-name="Trazado 600854" d="M24.327,3.826A5.119,5.119,0,0,1,25.6,4.7a31.8,31.8,0,0,1,2.068,2.81A1.959,1.959,0,1,1,24.487,9.8Q23.409,8.377,22.4,6.907a1.859,1.859,0,0,1-.077-2.065,2.153,2.153,0,0,1,2.005-1.016" transform="translate(-8.557 -1.485)" fill="#b2ebf2"/>
        <path id="Trazado_600855" data-name="Trazado 600855" d="M96.093,5.9a6.674,6.674,0,0,1-.506,1.175C94.964,8,94.3,8.894,93.627,9.783a1.965,1.965,0,1,1-3.169-2.315c.668-.952,1.346-1.9,2.061-2.818a1.866,1.866,0,0,1,2.212-.638A2.127,2.127,0,0,1,96.093,5.9" transform="translate(-34.936 -1.505)" fill="#b2ebf2"/>
      </g>
    </g>
  </g>
</svg>
