<svg xmlns="http://www.w3.org/2000/svg" xmlns:xlink="http://www.w3.org/1999/xlink" width="73" height="73" viewBox="0 0 73 73">
  <defs>
    <clipPath id="clip-path">
      <rect id="Rect치ngulo_295641" data-name="Rect치ngulo 295641" width="67.907" height="67.903" fill="#b2ebf2"/>
    </clipPath>
  </defs>
  <g id="Grupo_889203" data-name="Grupo 889203" transform="translate(-1155 9460)">
    <rect id="Rect치ngulo_295648" data-name="Rect치ngulo 295648" width="73" height="73" transform="translate(1155 -9460)" fill="none"/>
    <g id="Grupo_889196" data-name="Grupo 889196" transform="translate(1158 -9458)">
      <g id="Grupo_889196-2" data-name="Grupo 889196" clip-path="url(#clip-path)">
        <path id="Trazado_600771" data-name="Trazado 600771" d="M36.072,0c1.243.172,2.493.3,3.727.525,1.214.22,2.419.5,3.613.818a2.122,2.122,0,1,1-1.124,4.082A29.805,29.805,0,0,0,30.942,4.4a28.925,28.925,0,0,0-13.77,5.066A28.7,28.7,0,0,0,4.906,27.91c-2.059,10.474.765,19.6,8.254,27.2a27.522,27.522,0,0,0,14.789,7.9c11.141,2.078,20.615-1.116,28.267-9.464a28.38,28.38,0,0,0,7.119-15.262,29.675,29.675,0,0,0-.782-12.405,3.4,3.4,0,0,1-.157-1.294A2.037,2.037,0,0,1,64.319,22.8a2.062,2.062,0,0,1,2.214,1.612,45.53,45.53,0,0,1,1.047,4.983,33.024,33.024,0,0,1-6.092,24.384,33.058,33.058,0,0,1-23.614,13.88A33.912,33.912,0,0,1,.514,39.8C.3,38.565.169,37.315,0,36.072V31.828c.216-1.5.378-3.016.658-4.507A33.921,33.921,0,0,1,28.032.522c1.26-.207,2.531-.35,3.8-.522Z" fill="#b2ebf2"/>
        <path id="Trazado_600772" data-name="Trazado 600772" d="M88.106,0A2.656,2.656,0,0,1,89.74,2.608c.1,2.161.336,4.316.489,6.475.029.412.157.567.583.6,2.336.162,4.669.353,7,.536a2.092,2.092,0,0,1,1.941,1.367,2.034,2.034,0,0,1-.523,2.31c-2.5,2.5-4.977,5.024-7.519,7.481a3.006,3.006,0,0,1-1.648.7c-2.829.333-5.667.583-8.5.862a11.484,11.484,0,0,0-1.447.157,1.691,1.691,0,0,0-.755.459c-3.9,3.882-7.779,7.785-11.692,11.652a3.13,3.13,0,0,1-1.458.814,1.9,1.9,0,0,1-2.074-.989,2.09,2.09,0,0,1,.138-2.366,6.344,6.344,0,0,1,.545-.578q5.741-5.743,11.489-11.48a1.7,1.7,0,0,0,.552-1.135c.286-3.167.622-6.33.92-9.5a3.2,3.2,0,0,1,1-2.088c2.27-2.23,4.5-4.5,6.766-6.735A15.241,15.241,0,0,1,87.045,0Zm4.949,14.112-.7-.06c-1.429-.12-2.861-.209-4.286-.368a1.953,1.953,0,0,1-1.846-1.847c-.117-.94-.164-1.89-.244-2.835-.057-.661-.119-1.321-.191-2.129-1.284,1.291-2.455,2.457-3.6,3.644a1.064,1.064,0,0,0-.213.6c-.174,1.578-.333,3.159-.49,4.739-.093.932-.175,1.866-.268,2.862,2.656-.27,5.221-.528,7.784-.8a.727.727,0,0,0,.4-.188c1.181-1.156,2.352-2.322,3.657-3.616" transform="translate(-32.009)" fill="#b2ebf2"/>
        <path id="Trazado_600773" data-name="Trazado 600773" d="M21.149,45.1A23.591,23.591,0,0,1,41.236,21.376a22.715,22.715,0,0,1,9.454.591,2.081,2.081,0,0,1,1.617,2.017,1.986,1.986,0,0,1-1.485,2.03,3.625,3.625,0,0,1-1.554-.053c-7.2-1.583-13.487.132-18.607,5.441-9.853,10.215-5.233,27.418,8.385,31.479A19.164,19.164,0,0,0,63.1,39.676a2.147,2.147,0,0,1,1.455-2.821,2.171,2.171,0,0,1,2.654,1.768,23.408,23.408,0,1,1-45.819,9.244c-.157-1.091-.191-2.2-.238-2.769" transform="translate(-10.605 -10.596)" fill="#b2ebf2"/>
        <path id="Trazado_600774" data-name="Trazado 600774" d="M55.6,46.836a8.468,8.468,0,1,0,8.16,8.854,4.99,4.99,0,0,1,.059-.857,2.117,2.117,0,0,1,4.185.532,12.366,12.366,0,0,1-7.26,11.383,12.726,12.726,0,1,1-4.616-24.184,2.481,2.481,0,0,1,1.9.776,2.105,2.105,0,0,1-1.44,3.493c-.33.022-.662,0-.993,0" transform="translate(-21.332 -21.328)" fill="#b2ebf2"/>
      </g>
    </g>
  </g>
</svg>
