<svg xmlns="http://www.w3.org/2000/svg" xmlns:xlink="http://www.w3.org/1999/xlink" width="73" height="73" viewBox="0 0 73 73">
  <defs>
    <clipPath id="clip-path">
      <rect id="Rect치ngulo_295677" data-name="Rect치ngulo 295677" width="67.488" height="71.72" fill="#b2ebf2"/>
    </clipPath>
  </defs>
  <g id="Grupo_889219" data-name="Grupo 889219" transform="translate(-210 9504)">
    <rect id="Rect치ngulo_295645" data-name="Rect치ngulo 295645" width="73" height="73" transform="translate(210 -9504)" fill="none"/>
    <g id="Grupo_889218" data-name="Grupo 889218" transform="translate(213 -9503)">
      <g id="Grupo_889217" data-name="Grupo 889217" clip-path="url(#clip-path)">
        <path id="Trazado_600825" data-name="Trazado 600825" d="M54.782,67.777a30.621,30.621,0,0,1-20.177,8c-5.495.122-10.566-1.8-15.61-3.714-.63-.243-1.281-.443-1.883-.743-.476-.238-.711-.116-1.027.274a54.486,54.486,0,0,1-5.119,5.567,2.577,2.577,0,0,1-.949.711c0-4.1,0-8.146.007-12.188a1.43,1.43,0,0,0-.36-1.009,30.851,30.851,0,0,1-4.114-6.16,31.675,31.675,0,0,1,6.575-37.412c.971-.924.993-.9.166-1.911-.357-.521-.653-.557-1.168-.079a33.23,33.23,0,0,0-11,22.312A33,33,0,0,0,7.5,65.375a1.7,1.7,0,0,1,.4,1.141q-.021,7.432,0,14.863a1.325,1.325,0,0,0,.1.791c.142-.09.274-.172.4-.255a39.2,39.2,0,0,0,8.27-7.718.841.841,0,0,1,1.162-.282,62.463,62.463,0,0,0,7.608,2.58,30.8,30.8,0,0,0,7.691,1.415,33.191,33.191,0,0,0,22.865-8.344c1-.861.991-.871.182-1.878-.515-.717-.9-.347-1.393.089" transform="translate(0 -10.451)" fill="#b2ebf2"/>
        <path id="Trazado_600826" data-name="Trazado 600826" d="M82.9,19.092C77.07,7.7,67.751,1.243,54.94.126A32.72,32.72,0,0,0,34.329,5.292c-.629.393-.793.7-.319,1.27a1.437,1.437,0,0,1,.266.316c.287.663.631.653,1.2.252a24.325,24.325,0,0,1,3.981-2.2,31.763,31.763,0,0,1,11.775-2.8,22.934,22.934,0,0,1,4.811.224c.3.02.608.02.908.065a30.483,30.483,0,0,1,16.983,8.089c8.589,8.183,11.673,18.21,9.5,29.827a29.313,29.313,0,0,1-5.763,12.546c-.285.37-.372.613.1.853a1.209,1.209,0,0,1,.25.233,1.353,1.353,0,0,1,.286.2c.5.591.815.373,1.219-.173a33.333,33.333,0,0,0,6.544-16.8,32.067,32.067,0,0,0-3.176-18.1" transform="translate(-18.775 0)" fill="#b2ebf2"/>
        <path id="Trazado_600827" data-name="Trazado 600827" d="M66.7,58.222c2.477-.029,4.955-.036,7.432,0,.659.011.809-.19.807-.823-.023-6.474-.014-12.949-.014-19.423,0-6.5-.01-13,.015-19.493,0-.628-.166-.777-.778-.769-2.5.036-5,.031-7.5,0-.528-.006-.664.142-.663.666q.021,19.564,0,39.127c0,.553.147.715.7.709m2.153-38.376c1.119.051,2.244.038,3.364,0,.48-.015.587.155.584.6-.019,2.313-.009,4.627-.009,6.941q0,13.95.013,27.9c0,.6-.112.822-.76.785a32.022,32.022,0,0,0-3.223,0c-.571.025-.693-.171-.691-.709.018-5.818.011-11.637.011-17.456l-.012-17.316c0-.565.118-.776.724-.749" transform="translate(-36.729 -9.86)" fill="#b2ebf2"/>
        <path id="Trazado_600828" data-name="Trazado 600828" d="M114.053,93.977c-1.1,1.1-1.1,1.083-.028,2.229.269.287.428.318.722.035a34.954,34.954,0,0,0,2.668-2.776,26.65,26.65,0,0,0,6.269-15.606c.032-1.721.032-1.721-1.22-1.719a2.969,2.969,0,0,1-.35,0c-.392-.044-.541.118-.533.516a15.6,15.6,0,0,1-.1,1.884,24.738,24.738,0,0,1-7.424,15.439" transform="translate(-63.011 -42.368)" fill="#b2ebf2"/>
        <path id="Trazado_600829" data-name="Trazado 600829" d="M70.519,114.408a4.443,4.443,0,0,0-4.485,4.411,4.454,4.454,0,1,0,8.908-.009,4.44,4.44,0,0,0-4.423-4.4m-.055,6.75a2.343,2.343,0,0,1-2.292-2.349,2.316,2.316,0,0,1,4.632.047,2.344,2.344,0,0,1-2.34,2.3" transform="translate(-36.749 -63.67)" fill="#b2ebf2"/>
        <path id="Trazado_600830" data-name="Trazado 600830" d="M133.12,58.055c1.159,0,1.159,0,1.159-1.057s0-1.066-1.161-1.056c-1.245.01-1.077-.164-1.087.988-.01,1.126,0,1.126,1.09,1.126" transform="translate(-73.476 -31.13)" fill="#b2ebf2"/>
        <path id="Trazado_600831" data-name="Trazado 600831" d="M133.152,68.2c1.12,0,1.12,0,1.12-1.082,0-1.033,0-1.033-1.169-1.033-1.083,0-1.083,0-1.083,1.047,0,1.068,0,1.068,1.132,1.068" transform="translate(-73.471 -36.777)" fill="#b2ebf2"/>
        <path id="Trazado_600832" data-name="Trazado 600832" d="M29.055,25.432c1.291-.848,1.29-.819.528-2.174-.218-.388-.384-.4-.748-.181-8.36,5-12.76,12.432-13.583,22.058-.008,1.4-.008,1.4,1.349,1.391a.527.527,0,0,1,.07,0c.525.075.705-.1.73-.679A24.5,24.5,0,0,1,29.055,25.432" transform="translate(-8.488 -12.763)" fill="#b2ebf2"/>
        <path id="Trazado_600833" data-name="Trazado 600833" d="M16.144,83.417c1.163,0,1.163,0,1.163-1.04,0-1.078,0-1.078-1.123-1.078s-1.128,0-1.128,1.072c0,1.045,0,1.045,1.089,1.045" transform="translate(-8.378 -45.245)" fill="#b2ebf2"/>
        <path id="Trazado_600834" data-name="Trazado 600834" d="M16.385,93.535c.164,0,.328-.01.49,0,.3.019.428-.111.411-.411-.012-.209,0-.42,0-.631,0-1.079,0-1.079-1.071-1.079a2.55,2.55,0,0,1-.42,0c-.619-.1-.8.138-.776.762.046,1.361.011,1.363,1.367,1.361" transform="translate(-8.357 -50.859)" fill="#b2ebf2"/>
      </g>
    </g>
  </g>
</svg>
