<svg xmlns="http://www.w3.org/2000/svg" width="84.912" height="34.036" viewBox="0 0 84.912 34.036">
  <g id="Grupo_885848" data-name="Grupo 885848" transform="translate(-0.001 34.036) rotate(-90)">
    <g id="Grupo_152551" data-name="Grupo 152551" transform="translate(0 84.913) rotate(-90)">
      <rect id="Rectángulo_45220" data-name="Rectángulo 45220" width="79.044" height="23.537" transform="translate(84.912 23.537) rotate(180)" fill="#e8e8e8"/>
      <g id="Grupo_152556" data-name="Grupo 152556" transform="translate(0 13.038)">
        <rect id="Rectángulo_45221" data-name="Rectángulo 45221" width="4" height="4" transform="translate(59.494 16.998)" fill="#1565c0"/>
        <rect id="Rectángulo_45222" data-name="Rectángulo 45222" width="4" height="4" transform="translate(50.995 16.998)" fill="#1565c0"/>
        <rect id="Rectángulo_45223" data-name="Rectángulo 45223" width="4" height="4" transform="translate(42.496 16.998)" fill="#1565c0"/>
        <rect id="Rectángulo_45224" data-name="Rectángulo 45224" width="4" height="4" transform="translate(33.997 16.998)" fill="#1565c0"/>
        <rect id="Rectángulo_45225" data-name="Rectángulo 45225" width="4" height="4" transform="translate(25.498 16.998)" fill="#1565c0"/>
        <rect id="Rectángulo_45226" data-name="Rectángulo 45226" width="4" height="4" transform="translate(16.998 16.998)" fill="#1565c0"/>
        <rect id="Rectángulo_45227" data-name="Rectángulo 45227" width="4" height="4" transform="translate(8.499 16.998)" fill="#1565c0"/>
        <rect id="Rectángulo_45228" data-name="Rectángulo 45228" width="4" height="4" transform="translate(0 16.998)" fill="#1565c0"/>
        <rect id="Rectángulo_45232" data-name="Rectángulo 45232" width="4" height="4" transform="translate(59.494 8.499)" fill="#1565c0"/>
        <rect id="Rectángulo_45233" data-name="Rectángulo 45233" width="4" height="4" transform="translate(50.995 8.499)" fill="#1565c0"/>
        <rect id="Rectángulo_45234" data-name="Rectángulo 45234" width="4" height="4" transform="translate(42.496 8.499)" fill="#1565c0"/>
        <rect id="Rectángulo_45235" data-name="Rectángulo 45235" width="4" height="4" transform="translate(33.997 8.499)" fill="#1565c0"/>
        <rect id="Rectángulo_45236" data-name="Rectángulo 45236" width="4" height="4" transform="translate(25.498 8.499)" fill="#1565c0"/>
        <rect id="Rectángulo_45237" data-name="Rectángulo 45237" width="4" height="4" transform="translate(16.998 8.499)" fill="#1565c0"/>
        <rect id="Rectángulo_45238" data-name="Rectángulo 45238" width="4" height="4" transform="translate(8.499 8.499)" fill="#1565c0"/>
        <rect id="Rectángulo_45239" data-name="Rectángulo 45239" width="4" height="4" transform="translate(0 8.499)" fill="#1565c0"/>
        <rect id="Rectángulo_45243" data-name="Rectángulo 45243" width="4" height="4" transform="translate(59.494)" fill="#1565c0"/>
        <rect id="Rectángulo_45244" data-name="Rectángulo 45244" width="4" height="4" transform="translate(50.995)" fill="#1565c0"/>
        <rect id="Rectángulo_45245" data-name="Rectángulo 45245" width="4" height="4" transform="translate(42.496)" fill="#1565c0"/>
        <rect id="Rectángulo_45246" data-name="Rectángulo 45246" width="4" height="4" transform="translate(33.997)" fill="#1565c0"/>
        <rect id="Rectángulo_45247" data-name="Rectángulo 45247" width="4" height="4" transform="translate(25.498)" fill="#1565c0"/>
        <rect id="Rectángulo_45248" data-name="Rectángulo 45248" width="4" height="4" transform="translate(16.998)" fill="#1565c0"/>
        <rect id="Rectángulo_45249" data-name="Rectángulo 45249" width="4" height="4" transform="translate(8.499)" fill="#1565c0"/>
        <rect id="Rectángulo_45250" data-name="Rectángulo 45250" width="4" height="4" fill="#1565c0"/>
      </g>
    </g>
  </g>
</svg>
