<svg xmlns="http://www.w3.org/2000/svg" xmlns:xlink="http://www.w3.org/1999/xlink" width="73" height="73" viewBox="0 0 73 73">
  <defs>
    <clipPath id="clip-path">
      <rect id="Rectángulo_295684" data-name="Rectángulo 295684" width="70.512" height="70.441" fill="#b2ebf2"/>
    </clipPath>
  </defs>
  <g id="Grupo_889228" data-name="Grupo 889228" transform="translate(-449 -2190)">
    <rect id="Rectángulo_295644" data-name="Rectángulo 295644" width="73" height="73" transform="translate(449 2190)" fill="none"/>
    <g id="Grupo_889227" data-name="Grupo 889227" transform="translate(450 2191)">
      <g id="Grupo_889226" data-name="Grupo 889226" clip-path="url(#clip-path)">
        <path id="Trazado_600856" data-name="Trazado 600856" d="M52.86,61.172V58.985h6.806v2.172h2.285V58.975h6.794c.013.192.039.394.039.6,0,2.368.015,4.737-.012,7.1a2.06,2.06,0,0,1-.318,1.042c-1.251,1.925-2.547,3.82-3.8,5.746a1.433,1.433,0,0,0-.222.97q2,9.147,4.057,18.282c.019.089.047.177.071.267.485.077.957.115,1.41.23a4.5,4.5,0,0,1,3.342,4.127c.05,1.561.01,3.125.01,4.746h-34.1v-1.575c0-.994-.014-1.989.005-2.984a4.554,4.554,0,0,1,4.215-4.469c.164-.013.327-.023.552-.039q.665-2.969,1.329-5.935c.928-4.178,1.863-8.355,2.761-12.539a1.618,1.618,0,0,0-.2-1.1c-1.227-1.911-2.515-3.783-3.751-5.689a2.193,2.193,0,0,1-.346-1.1c-.03-2.533-.015-5.067-.015-7.658h6.8v2.177Zm-2.5,13.715c-1.35,6.082-2.685,12.093-4.026,18.137H66.226L62.194,74.887Zm20.7,24.959c0-.684,0-1.3,0-1.91a2.322,2.322,0,0,0-2.63-2.612q-7.494,0-14.987,0-4.759,0-9.518,0a2.223,2.223,0,0,0-2.377,1.9,24.108,24.108,0,0,0-.019,2.624Zm-24-31.787c.942,1.415,1.831,2.72,2.683,4.049a.942.942,0,0,0,.917.485c3.386-.018,6.775-.079,10.158.026a2.478,2.478,0,0,0,2.639-1.428,36.978,36.978,0,0,1,2.052-3.131Zm8.082-4.623h-6.83V61.254H46.1V65.7H66.472V61.261H64.2v2.184H57.4V61.27H55.138Z" transform="translate(-21.047 -31.646)" fill="#b2ebf2"/>
        <path id="Trazado_600857" data-name="Trazado 600857" d="M20.474,10.087a10.169,10.169,0,0,1-4.378,8.5,2.829,2.829,0,0,0-1.342,2.622,11.035,11.035,0,0,1-.13,2.542,4.484,4.484,0,0,1-4.816,3.528,4.571,4.571,0,0,1-4.125-4.339c-.025-.662-.022-1.327-.006-1.989a2.526,2.526,0,0,0-1.2-2.269A9.954,9.954,0,0,1,0,9.834,10.221,10.221,0,0,1,20.322,8.68c.07.515.112,1.034.152,1.408M12.5,20.442a5.349,5.349,0,0,1,2.522-3.906,7.473,7.473,0,0,0,2.984-7.843A7.508,7.508,0,0,0,12.4,2.6,7.562,7.562,0,0,0,4.326,4.922,7.868,7.868,0,0,0,5.68,16.744,4.846,4.846,0,0,1,7.9,20.131a2.724,2.724,0,0,0,.07.285H9.085c0-2.231.013-4.408-.019-6.585a.912.912,0,0,0-.441-.591A3.4,3.4,0,1,1,13.4,9.02a3.318,3.318,0,0,1-1.508,4.147.877.877,0,0,0-.541.923c.024,1.847.01,3.695.01,5.542v.811ZM7.971,22.779a2.274,2.274,0,0,0,2.269,2.237,2.24,2.24,0,0,0,2.22-2.237Zm2.24-11.411a1.131,1.131,0,1,0-1.12-1.143,1.145,1.145,0,0,0,1.12,1.143" transform="translate(0 0)" fill="#b2ebf2"/>
        <path id="Trazado_600858" data-name="Trazado 600858" d="M114.548,19l-1.428.643c-1.373-1.374-2.748-2.74-4.1-4.126a.641.641,0,0,1-.069-.539,11.24,11.24,0,0,1,.489-1.113l-1.46-.561V7.188l1.392-.555c0-.08.019-.141,0-.17-.8-1.038-.292-1.722.543-2.443a33.057,33.057,0,0,0,2.664-2.657.846.846,0,0,1,1.254-.216,5.576,5.576,0,0,0,.728.339l.578-1.478c1.934,0,3.873-.007,5.811.015a.645.645,0,0,1,.428.341,9.719,9.719,0,0,1,.4,1.033c.083.014.146.044.171.026,1.024-.776,1.713-.31,2.45.523.986,1.114,2.095,2.12,3.184,3.206l-.6,1.391c.042.056.053.088.069.09,1.381.176,1.459,1.108,1.389,2.231a34.086,34.086,0,0,0,0,3.692c.028.611-.177.91-.75,1.031a4.684,4.684,0,0,0-.67.251.678.678,0,0,0,0,.217c.52,1.306.519,1.3-.492,2.317-1.07,1.072-2.139,2.146-3.247,3.259l-1.39-.595c-.065.051-.128.075-.132.107-.166,1.23-.924,1.446-2.037,1.356a34.72,34.72,0,0,0-3.9-.011c-.537.018-.838-.116-.943-.666a4.8,4.8,0,0,0-.324-.821M111.5,5.589c.174.385.311.684.444.984a1.357,1.357,0,0,1-.717,1.793c-.94.214-1.108.768-1,1.581a2.267,2.267,0,0,1,0,.708c-.155.823.191,1.235.988,1.437a1.321,1.321,0,0,1,.757,1.708,1.2,1.2,0,0,0,.4,1.877,1.8,1.8,0,0,1,.45.451,1.128,1.128,0,0,0,1.766.356,1.27,1.27,0,0,1,1.7.635c.22,1.048.861,1.2,1.74,1.082a1.936,1.936,0,0,1,.567,0,1.1,1.1,0,0,0,1.452-.968c.131-.582,1.186-1.13,1.63-.816.949.673,1.526.222,2.1-.493a2.006,2.006,0,0,1,.4-.4,1.024,1.024,0,0,0,.3-1.6,1.291,1.291,0,0,1,.591-1.772c1.083-.235,1.214-.9,1.1-1.8a2.521,2.521,0,0,1,0-.709c.106-.67-.153-1.008-.818-1.2a1.374,1.374,0,0,1-.845-2.009l.4-.869a14.037,14.037,0,0,1-1.345-1.254c-.511-.61-.986-.8-1.716-.331a1.308,1.308,0,0,1-1.717-.594c-.23-1.129-.958-1.205-1.861-1.115a4.7,4.7,0,0,1-.992,0,.594.594,0,0,0-.747.541c-.122.632-.436,1.138-1.111,1.19a7.232,7.232,0,0,1-1.318-.2c-.242-.028-.574-.082-.724.044-.649.547-1.245,1.157-1.861,1.744" transform="translate(-57.941 -0.003)" fill="#b2ebf2"/>
        <path id="Trazado_600859" data-name="Trazado 600859" d="M119.336,68.8c0,1.562,0,3.095,0,4.627,0,1.113.018,2.227-.007,3.339a3.368,3.368,0,0,1-3.286,3.348c-2.6.038-5.21.01-7.814.008A1.113,1.113,0,0,1,108,80.07V77.856h.749q3.409,0,6.819,0c1.112,0,1.489-.38,1.491-1.494q0-3.375,0-6.75V68.8Z" transform="translate(-57.954 -36.919)" fill="#b2ebf2"/>
        <path id="Trazado_600860" data-name="Trazado 600860" d="M19.606,83.491H21.88c0,.278,0,.529,0,.781.009,1.072.389,1.462,1.448,1.465q3.516.006,7.033,0h.555v2.274H23.509c-2.593,0-3.923-1.349-3.9-3.957,0-.164,0-.327,0-.564" transform="translate(-10.52 -44.802)" fill="#b2ebf2"/>
        <rect id="Rectángulo_295680" data-name="Rectángulo 295680" width="2.174" height="2.211" transform="translate(59.164 22.794)" fill="#b2ebf2"/>
        <rect id="Rectángulo_295681" data-name="Rectángulo 295681" width="2.186" height="2.191" transform="translate(59.162 27.339)" fill="#b2ebf2"/>
        <rect id="Rectángulo_295682" data-name="Rectángulo 295682" width="2.186" height="2.188" transform="translate(9.141 29.615)" fill="#b2ebf2"/>
        <rect id="Rectángulo_295683" data-name="Rectángulo 295683" width="2.211" height="2.161" transform="translate(9.101 34.168)" fill="#b2ebf2"/>
        <path id="Trazado_600861" data-name="Trazado 600861" d="M64.646,107.244l2.212.494-.492,2.207-2.2-.489.481-2.212" transform="translate(-34.431 -57.547)" fill="#b2ebf2"/>
        <path id="Trazado_600862" data-name="Trazado 600862" d="M69,98.161l-.5,2.2-2.2-.483c.155-.72.3-1.4.475-2.2L69,98.161" transform="translate(-35.573 -52.415)" fill="#b2ebf2"/>
        <path id="Trazado_600863" data-name="Trazado 600863" d="M62.551,116.805l2.208.5c-.165.744-.323,1.46-.489,2.213l-2.195-.5c.16-.745.31-1.445.475-2.217" transform="translate(-33.31 -62.678)" fill="#b2ebf2"/>
        <path id="Trazado_600864" data-name="Trazado 600864" d="M129.109,15.515a5.682,5.682,0,1,1-5.692-5.69,5.7,5.7,0,0,1,5.692,5.69M123.446,12.1a3.409,3.409,0,1,0,3.389,3.462,3.423,3.423,0,0,0-3.389-3.462" transform="translate(-63.182 -5.272)" fill="#b2ebf2"/>
      </g>
    </g>
  </g>
</svg>
