<svg xmlns="http://www.w3.org/2000/svg" xmlns:xlink="http://www.w3.org/1999/xlink" width="99" height="99" viewBox="0 0 99 99">
  <defs>
    <clipPath id="clip-path">
      <rect id="Rect치ngulo_295707" data-name="Rect치ngulo 295707" width="96.121" height="96.121" fill="#fb8c00"/>
    </clipPath>
  </defs>
  <g id="Grupo_889276" data-name="Grupo 889276" transform="translate(-435 -2464)">
    <g id="Grupo_889274" data-name="Grupo 889274" transform="translate(436 2465)">
      <g id="Grupo_889274-2" data-name="Grupo 889274" clip-path="url(#clip-path)">
        <path id="Trazado_600886" data-name="Trazado 600886" d="M96.121,48.628a2.378,2.378,0,0,1-2.134.869c-1.873-.038-3.748-.011-5.707-.011a40.371,40.371,0,0,1-38.814,38.8c0,1.527,0,3.016,0,4.505,0,.626.023,1.254-.016,1.877a1.39,1.39,0,0,1-1.4,1.453,1.376,1.376,0,0,1-1.381-1.47c-.037-1.815-.016-3.63-.019-5.445,0-.278,0-.555,0-.917a40.377,40.377,0,0,1-38.813-38.8c-1.151,0-2.266,0-3.379,0-.97,0-1.941.025-2.909-.015A1.412,1.412,0,0,1,0,48.056a1.391,1.391,0,0,1,1.564-1.378c1.721-.023,3.442-.008,5.163-.009H7.746c.233-1.871.4-3.668.689-5.444a39.121,39.121,0,0,1,7.011-16.7,1.424,1.424,0,0,1,2.088-.548c.724.5.811,1.321.171,2.218a36.446,36.446,0,0,0-6.327,14.589c-.356,1.9-.538,3.824-.813,5.824h4.921C16.037,30.367,29.9,16.119,46.591,15.486V10.643c-1.531.165-3.051.256-4.544.5a36.933,36.933,0,0,0-20.239,10.27,3.105,3.105,0,0,1-1.145.757,1.225,1.225,0,0,1-1.5-.668,1.282,1.282,0,0,1,.295-1.7c1.513-1.356,2.98-2.78,4.6-4A39.419,39.419,0,0,1,46.044,7.894c.152-.009.3-.027.6-.053V4.482c0-.813.034-1.629-.009-2.44A2.2,2.2,0,0,1,47.493,0H48.62a2.289,2.289,0,0,1,.856,2.134c-.045.873-.01,1.752-.01,2.627V7.844c.329.026.512.043.695.053a39.424,39.424,0,0,1,21.889,7.9c1.547,1.158,2.967,2.494,4.394,3.8a1.322,1.322,0,0,1,.041,2,1.433,1.433,0,0,1-1.956.018,5.4,5.4,0,0,1-.413-.382A36.682,36.682,0,0,0,55.2,11.353c-1.854-.358-3.748-.507-5.655-.756v4.954A32.722,32.722,0,0,1,80.578,46.618H85.54c-.265-1.982-.438-3.906-.794-5.794a36.461,36.461,0,0,0-6.532-14.9c-.654-.9-.584-1.706.134-2.223a1.432,1.432,0,0,1,2.1.52,39.1,39.1,0,0,1,7.219,16.908c.3,1.805.465,3.634.7,5.535,1.9,0,3.809.031,5.711-.014a2.278,2.278,0,0,1,2.044.847Zm-18.373-.564a29.692,29.692,0,1,0-29.74,29.693,29.686,29.686,0,0,0,29.74-29.693M10.794,49.537c.152,19.1,17.025,35.678,35.778,35.785V80.8C28.178,78.225,17.834,67.869,15.313,49.486c-1.207,0-2.548,0-3.889,0-.211,0-.423.032-.63.049m38.73,35.92A37,37,0,0,0,75.43,73.493,36.79,36.79,0,0,0,85.436,49.565H80.8C78.2,67.962,67.84,78.3,49.524,80.8Z" transform="translate(0 0)" fill="#fb8c00"/>
        <path id="Trazado_600887" data-name="Trazado 600887" d="M67.31,52.517c2.593,0,5.124,0,7.656,0a7.061,7.061,0,0,1,.936.031,1.283,1.283,0,0,1,1.2,1.331,1.243,1.243,0,0,1-1.138,1.378,21.068,21.068,0,0,1-2.34.073c-2.092.008-4.182,0-6.315,0-1.242,6.732-5.191,10.723-12,11.988v2.112c0,2,.011,4-.007,6.005-.01,1.042-.539,1.667-1.362,1.694-.854.028-1.434-.627-1.442-1.707-.018-2.345-.006-4.692-.007-7.037V67.323c-6.727-1.239-10.726-5.18-12-11.989H38.391c-2,0-4,.015-6.005-.009-1.078-.012-1.733-.605-1.7-1.455.03-.825.656-1.342,1.7-1.347,2.687-.011,5.375,0,8.11,0,1.217-6.766,5.208-10.753,12-12.015,0-2.389,0-4.759,0-7.13,0-.438-.018-.878.023-1.313a1.4,1.4,0,0,1,1.391-1.367,1.37,1.37,0,0,1,1.376,1.377c.05,1.374.025,2.752.028,4.128,0,1.406,0,2.813,0,4.3,6.732,1.224,10.74,5.2,12,12.022m-23.813,0h1c1.5,0,3-.016,4.505.02a1.274,1.274,0,0,1,1.349,1.281A1.317,1.317,0,0,1,49.1,55.289a9.95,9.95,0,0,1-1.31.043c-1.43,0-2.86,0-4.3,0,.4,4.551,5.014,9.1,9.005,8.912,0-.365,0-.735,0-1.1,0-1.439-.023-2.88.027-4.318a1.307,1.307,0,0,1,1.37-1.361,1.331,1.331,0,0,1,1.4,1.339c.04.4.023.813.023,1.219q0,2.145,0,4.295c4.471-.3,9.031-4.9,8.932-8.981-.8,0-1.612.006-2.42,0-1.063-.01-2.13.023-3.187-.066a1.236,1.236,0,0,1-1.18-1.425,1.261,1.261,0,0,1,1.231-1.293,9.636,9.636,0,0,1,1.124-.029q2.238,0,4.478,0c-.2-4.369-4.683-8.849-8.978-8.982v1.01c0,1.439.021,2.879-.015,4.318a1.4,1.4,0,1,1-2.789.022c-.038-1.031-.014-2.065-.015-3.1,0-.765,0-1.53,0-2.312a10.388,10.388,0,0,0-9,9.042" transform="translate(-5.847 -5.849)" fill="#fb8c00"/>
      </g>
    </g>
    <rect id="Rect치ngulo_295709" data-name="Rect치ngulo 295709" width="99" height="99" transform="translate(435 2464)" fill="none"/>
  </g>
</svg>
