<svg xmlns="http://www.w3.org/2000/svg" xmlns:xlink="http://www.w3.org/1999/xlink" width="73" height="73.236" viewBox="0 0 73 73.236">
  <defs>
    <clipPath id="clip-path">
      <rect id="Rect치ngulo_295643" data-name="Rect치ngulo 295643" width="72.459" height="72.456" fill="#b2ebf2"/>
    </clipPath>
  </defs>
  <g id="Grupo_889201" data-name="Grupo 889201" transform="translate(-1079 -2189.764)">
    <rect id="Rect치ngulo_295654" data-name="Rect치ngulo 295654" width="73" height="73" transform="translate(1079 2190)" fill="none"/>
    <g id="Grupo_889200" data-name="Grupo 889200">
      <g id="Grupo_889199" data-name="Grupo 889199" transform="translate(1079 2189.764)">
        <g id="Grupo_889199-2" data-name="Grupo 889199" clip-path="url(#clip-path)">
          <path id="Trazado_600789" data-name="Trazado 600789" d="M0,33.961c.187-1.374.345-2.752.566-4.12a36.348,36.348,0,0,1,26.192-28.6A36.761,36.761,0,0,1,40.426.25c.975.118,1.543.74,1.454,1.558a1.469,1.469,0,0,1-1.812,1.239A33.381,33.381,0,0,0,13.683,60.825a32.4,32.4,0,0,0,18.492,8.532A33.263,33.263,0,0,0,68.539,44.581c2.554-9.883.77-19.11-4.983-27.554a1.505,1.505,0,0,0-.562-.519c0,.433.015.866,0,1.3a1.407,1.407,0,0,1-1.372,1.422,1.377,1.377,0,0,1-1.421-1.3q-.069-2.792,0-5.588a1.331,1.331,0,0,1,1.412-1.3c1.792-.02,3.586-.023,5.377,0a1.354,1.354,0,0,1,1.38,1.4,1.39,1.39,0,0,1-1.381,1.409c-.352.023-.707.007-1.061.008H64.755c.364.5.655.885.934,1.28a35.791,35.791,0,0,1,6.6,24.655,36.187,36.187,0,0,1-29.81,32.113c-1.32.221-2.652.368-3.979.55H33.966c-.157-.039-.313-.09-.473-.114-1.653-.241-3.323-.4-4.959-.728a36.236,36.236,0,0,1-27.968-29C.344,41.241.187,39.863,0,38.489V33.961" transform="translate(0 0)" fill="#b2ebf2"/>
          <path id="Trazado_600790" data-name="Trazado 600790" d="M41.929,17.639a24.89,24.89,0,0,0-12.256,3.471,7.092,7.092,0,0,1-.8.445,1.376,1.376,0,0,1-1.767-.594,1.4,1.4,0,0,1,.342-1.787,4.077,4.077,0,0,1,.472-.31,26.944,26.944,0,1,1-8.991,8.949,1.584,1.584,0,0,1,1.45-.953,1.419,1.419,0,0,1,1.113,2.189c-.706,1.383-1.5,2.733-2.061,4.172A24.166,24.166,0,1,0,46,18.065c-1.342-.23-2.714-.288-4.072-.426" transform="translate(-5.727 -5.717)" fill="#b2ebf2"/>
          <path id="Trazado_600791" data-name="Trazado 600791" d="M52.818,54.657a4.83,4.83,0,0,1-4.537-6.519.908.908,0,0,0-.244-1.155c-1.425-1.375-2.814-2.788-4.212-4.192a1.381,1.381,0,0,1-.317-1.739,1.255,1.255,0,0,1,1.477-.706,2.346,2.346,0,0,1,1,.614q2.053,2,4.054,4.05a.838.838,0,0,0,1.089.258,4.378,4.378,0,0,1,3.444,0,.8.8,0,0,0,1.032-.229q4.383-4.421,8.8-8.81a4.7,4.7,0,0,1,.63-.565,1.393,1.393,0,0,1,1.953,1.905,4.661,4.661,0,0,1-.605.688Q62,42.642,57.615,47.009a.862.862,0,0,0-.247,1.09,4.83,4.83,0,0,1-4.55,6.558" transform="translate(-16.602 -13.575)" fill="#b2ebf2"/>
          <path id="Trazado_600792" data-name="Trazado 600792" d="M88.55,59.273c-.305,0-.611.015-.915,0a1.4,1.4,0,0,1-.113-2.79,12.308,12.308,0,0,1,2.04,0,1.4,1.4,0,0,1-.1,2.791c-.3.019-.61,0-.915,0" transform="translate(-33.057 -21.626)" fill="#b2ebf2"/>
          <path id="Trazado_600793" data-name="Trazado 600793" d="M59.238,88.561c0,.305.025.613,0,.915a1.4,1.4,0,0,1-1.452,1.329,1.367,1.367,0,0,1-1.357-1.412c-.02-.563-.018-1.128,0-1.69a1.385,1.385,0,0,1,1.335-1.44,1.417,1.417,0,0,1,1.478,1.383c.025.3,0,.61,0,.915h0" transform="translate(-21.615 -33.054)" fill="#b2ebf2"/>
          <path id="Trazado_600794" data-name="Trazado 600794" d="M59.283,26.176c0,.282.015.564,0,.845A1.381,1.381,0,0,1,58,28.371a1.362,1.362,0,0,1-1.5-1.192A10.659,10.659,0,0,1,56.5,25a1.342,1.342,0,0,1,1.509-1.166,1.365,1.365,0,0,1,1.267,1.355c.019.328,0,.658,0,.986" transform="translate(-21.63 -9.131)" fill="#b2ebf2"/>
          <path id="Trazado_600795" data-name="Trazado 600795" d="M26.139,56.418c.282,0,.564-.012.845,0a1.387,1.387,0,0,1,1.4,1.308A1.365,1.365,0,0,1,27.165,59.2a11.362,11.362,0,0,1-2.109,0,1.354,1.354,0,0,1-1.216-1.472,1.369,1.369,0,0,1,1.383-1.314c.3-.015.61,0,.915,0" transform="translate(-9.135 -21.617)" fill="#b2ebf2"/>
          <path id="Trazado_600796" data-name="Trazado 600796" d="M75.139,3.694a1.409,1.409,0,0,1-1.395,1.4,1.455,1.455,0,0,1-1.417-1.4,1.424,1.424,0,0,1,1.449-1.422,1.38,1.38,0,0,1,1.363,1.417" transform="translate(-27.714 -0.872)" fill="#b2ebf2"/>
          <path id="Trazado_600797" data-name="Trazado 600797" d="M29.916,28.5a1.4,1.4,0,0,1-1.38,1.409A1.422,1.422,0,0,1,27.1,28.474a1.447,1.447,0,0,1,1.425-1.384A1.421,1.421,0,0,1,29.916,28.5" transform="translate(-10.384 -10.381)" fill="#b2ebf2"/>
        </g>
      </g>
    </g>
  </g>
</svg>
