<svg xmlns="http://www.w3.org/2000/svg" xmlns:xlink="http://www.w3.org/1999/xlink" width="99" height="99" viewBox="0 0 99 99">
  <defs>
    <clipPath id="clip-path">
      <rect id="Rect치ngulo_295708" data-name="Rect치ngulo 295708" width="98.667" height="97.063" transform="translate(0 0)" fill="#fb8c00"/>
    </clipPath>
  </defs>
  <g id="Grupo_889277" data-name="Grupo 889277" transform="translate(-752 -2464)">
    <g id="Grupo_889275" data-name="Grupo 889275" transform="translate(752 2465)">
      <g id="Grupo_889275-2" data-name="Grupo 889275" clip-path="url(#clip-path)">
        <path id="Trazado_600888" data-name="Trazado 600888" d="M2.63,88.065a31.808,31.808,0,0,1-.89-3.476,9.533,9.533,0,0,1,3.728-9.4c1.247-.982,2.519-1.932,3.736-2.864A13.989,13.989,0,0,1,8.143,70.15a3.824,3.824,0,0,1,2.738-4.707,2.04,2.04,0,0,0,1.164-.875A34.933,34.933,0,0,0,15.865,46a33.558,33.558,0,0,0-4.024-14.034c-.762-1.391-.851-2.521.332-3.647a4.474,4.474,0,0,0,.551-.706c.953-1.372,1.9-2.754,4.128-2.013-.184-.653-.278-1.05-.407-1.435-.665-1.977-1.475-3.916-1.977-5.933a4.5,4.5,0,0,1,4.433-5.54c2.324-.026,4.648-.005,6.972-.005H27.01V7.828H22.349V4.762h4.677V0h3.1V4.688h4.735v3.1h-4.64V12.64c.328.015.677.045,1.026.045,2.225,0,4.45,0,6.674,0a4.655,4.655,0,0,1,4.65,6.42c-.554,1.7-1.192,3.372-1.786,5.059-.13.369-.234.748-.344,1.1.117.079.176.153.222.146,1.771-.277,2.774.707,3.739,2.036,2.133,2.937,2.04,2.249.515,5.4a34.946,34.946,0,0,0-3.4,19.228c.016.155.051.309.107.642a8.178,8.178,0,0,0,.536-.706A29.571,29.571,0,0,1,63.408,37.069a30.187,30.187,0,0,1,16.5,57.7,29.617,29.617,0,0,1-22.122.287c-.758-.282-1.23-.371-1.817.39a4.7,4.7,0,0,1-4,1.62q-21.067-.011-42.137,0c-1.56,0-3.121,0-4.682,0a4.82,4.82,0,0,1-4.913-3.3c-.672-2.154.112-4.1,2.225-5.544a1.335,1.335,0,0,0,.171-.147M15.285,65.176a2.954,2.954,0,0,0,.408.074c7.273,0,14.545,0,21.817.021.68,0,.8-.308.88-.889.238-1.739.572-3.464.814-5.2a5.6,5.6,0,0,0,.011-1.941,38.351,38.351,0,0,1,3.056-25.972,1.955,1.955,0,0,0-1.646-2.715q-12-.014-24.008,0a1.949,1.949,0,0,0-1.664,2.7,38.118,38.118,0,0,1,2.06,29.409c-.489,1.5-1.129,2.96-1.728,4.513m80.331,1.732A27.152,27.152,0,1,0,68.2,93.98,27.186,27.186,0,0,0,95.616,66.908M46.31,87.576a2.609,2.609,0,0,0-.217-.438,30.3,30.3,0,0,1-7.037-13.325c-.136-.562-.443-.639-.922-.639-8.133.007-16.265,0-24.4.023a1.959,1.959,0,0,0-1.072.4C10.877,74.921,9.1,76.257,7.35,77.631a7.006,7.006,0,0,0-1.91,8.776A1.862,1.862,0,0,0,7.35,87.6c12.581-.039,25.161-.025,37.741-.025ZM28.686,15.766q-4.728,0-9.455,0a1.629,1.629,0,0,0-1.71,2.354c.754,2.259,1.564,4.5,2.408,6.729a1.126,1.126,0,0,0,.852.564q7.863.051,15.725.005a.956.956,0,0,0,.741-.434c.871-2.325,1.731-4.655,2.5-7.013a1.641,1.641,0,0,0-1.712-2.236c-3.115.1-6.236.03-9.354.03M53.747,93.619l-.036-.389c-.934-.623-1.9-1.2-2.789-1.883a3.2,3.2,0,0,0-2.1-.679q-21.651.03-43.3.015a9.424,9.424,0,0,0-1,.014,1.643,1.643,0,0,0,.029,3.271,8.917,8.917,0,0,0,.9.012H23.272q14.335,0,28.67-.016a9.575,9.575,0,0,0,1.805-.346m-15.389-23.6c.089-1.649.089-1.65-1.35-1.65H12.622c-.3,0-.66-.091-.88.044-.292.179-.655.54-.651.818s.388.6.674.805c.154.112.45.035.682.035q12.443,0,24.884,0c.347,0,.695-.034,1.027-.051" fill="#fb8c00"/>
        <path id="Trazado_600889" data-name="Trazado 600889" d="M44.61,66.793A23.854,23.854,0,1,1,68.4,90.682,23.943,23.943,0,0,1,44.61,66.793M68.487,46.054A20.775,20.775,0,1,0,89.24,66.8,20.725,20.725,0,0,0,68.487,46.054" fill="#fb8c00"/>
        <path id="Trazado_600890" data-name="Trazado 600890" d="M69.937,81.068H66.891c.447-1.5-.512-1.868-1.6-2.394a8.144,8.144,0,0,1-4.7-6.953h2.969A5.361,5.361,0,0,0,67.546,76.3a4.693,4.693,0,0,0,5.722-3.731,3.17,3.17,0,0,0-1.256-2.98,5.209,5.209,0,0,0-3.387-1.228,8.537,8.537,0,0,1-6.059-2.353c-3.943-3.857-1.454-9.615,2.8-11.272a2.25,2.25,0,0,1,.564-.191c.831-.08,1.144-.518,1-1.331a2.864,2.864,0,0,1,.038-.624h2.887c.044.065.117.123.11.169-.167,1.159.373,1.656,1.447,2.126a8.128,8.128,0,0,1,4.931,7.026h-2.96c-.1-.354-.194-.764-.328-1.162a5.221,5.221,0,0,0-4.508-3.537A4.683,4.683,0,0,0,64.006,60a3.17,3.17,0,0,0,.869,4.033A5.424,5.424,0,0,0,68.15,65.3a14.6,14.6,0,0,1,2.939.43,7.062,7.062,0,0,1,5.279,6.288,7.648,7.648,0,0,1-4.854,6.915c-1.435.553-1.435.553-1.577,2.136" fill="#fb8c00"/>
      </g>
    </g>
    <rect id="Rect치ngulo_295710" data-name="Rect치ngulo 295710" width="99" height="99" transform="translate(752 2464)" fill="none"/>
  </g>
</svg>
