<svg xmlns="http://www.w3.org/2000/svg" width="84.412" height="82.465" viewBox="0 0 84.412 82.465">
  <g id="Grupo_889137" data-name="Grupo 889137" transform="translate(-705.588 -509)">
    <rect id="Rectángulo_45220" data-name="Rectángulo 45220" width="60.983" height="48.731" transform="translate(754.319 509) rotate(90)" fill="#e4e4e4"/>
    <rect id="Rectángulo_45221" data-name="Rectángulo 45221" width="4.203" height="4.203" transform="translate(785.797 529.534) rotate(-90)" fill="#fb8c00"/>
    <rect id="Rectángulo_45222" data-name="Rectángulo 45222" width="4.203" height="4.203" transform="translate(785.797 538.465) rotate(-90)" fill="#fb8c00"/>
    <rect id="Rectángulo_45223" data-name="Rectángulo 45223" width="4.203" height="4.203" transform="translate(785.797 547.395) rotate(-90)" fill="#fb8c00"/>
    <rect id="Rectángulo_45224" data-name="Rectángulo 45224" width="4.202" height="4.203" transform="translate(785.797 556.325) rotate(-90)" fill="#fb8c00"/>
    <rect id="Rectángulo_45225" data-name="Rectángulo 45225" width="4.203" height="4.203" transform="translate(785.797 565.256) rotate(-90)" fill="#fb8c00"/>
    <rect id="Rectángulo_45226" data-name="Rectángulo 45226" width="4.202" height="4.203" transform="translate(785.797 574.186) rotate(-90)" fill="#fb8c00"/>
    <rect id="Rectángulo_45232" data-name="Rectángulo 45232" width="4.203" height="4.203" transform="translate(776.867 529.534) rotate(-90)" fill="#fb8c00"/>
    <rect id="Rectángulo_45233" data-name="Rectángulo 45233" width="4.203" height="4.203" transform="translate(776.867 538.465) rotate(-90)" fill="#fb8c00"/>
    <rect id="Rectángulo_45234" data-name="Rectángulo 45234" width="4.203" height="4.203" transform="translate(776.867 547.395) rotate(-90)" fill="#fb8c00"/>
    <rect id="Rectángulo_45235" data-name="Rectángulo 45235" width="4.202" height="4.203" transform="translate(776.867 556.325) rotate(-90)" fill="#fb8c00"/>
    <rect id="Rectángulo_45236" data-name="Rectángulo 45236" width="4.203" height="4.203" transform="translate(776.867 565.256) rotate(-90)" fill="#fb8c00"/>
    <rect id="Rectángulo_45237" data-name="Rectángulo 45237" width="4.202" height="4.203" transform="translate(776.867 574.186) rotate(-90)" fill="#fb8c00"/>
    <rect id="Rectángulo_45243" data-name="Rectángulo 45243" width="4.203" height="4.203" transform="translate(767.937 529.534) rotate(-90)" fill="#fb8c00"/>
    <rect id="Rectángulo_45244" data-name="Rectángulo 45244" width="4.203" height="4.203" transform="translate(767.937 538.465) rotate(-90)" fill="#fb8c00"/>
    <rect id="Rectángulo_45245" data-name="Rectángulo 45245" width="4.203" height="4.203" transform="translate(767.937 547.395) rotate(-90)" fill="#fb8c00"/>
    <rect id="Rectángulo_45246" data-name="Rectángulo 45246" width="4.202" height="4.203" transform="translate(767.937 556.325) rotate(-90)" fill="#fb8c00"/>
    <rect id="Rectángulo_45247" data-name="Rectángulo 45247" width="4.203" height="4.203" transform="translate(767.937 565.256) rotate(-90)" fill="#fb8c00"/>
    <rect id="Rectángulo_45248" data-name="Rectángulo 45248" width="4.202" height="4.203" transform="translate(767.937 574.186) rotate(-90)" fill="#fb8c00"/>
    <rect id="Rectángulo_45221-2" data-name="Rectángulo 45221" width="4.203" height="4.203" transform="translate(759.753 529.534) rotate(-90)" fill="#fb8c00"/>
    <rect id="Rectángulo_45222-2" data-name="Rectángulo 45222" width="4.203" height="4.203" transform="translate(759.753 538.465) rotate(-90)" fill="#fb8c00"/>
    <rect id="Rectángulo_45223-2" data-name="Rectángulo 45223" width="4.203" height="4.203" transform="translate(759.753 547.395) rotate(-90)" fill="#fb8c00"/>
    <rect id="Rectángulo_45224-2" data-name="Rectángulo 45224" width="4.202" height="4.203" transform="translate(759.753 556.325) rotate(-90)" fill="#fb8c00"/>
    <rect id="Rectángulo_45225-2" data-name="Rectángulo 45225" width="4.203" height="4.203" transform="translate(759.753 565.256) rotate(-90)" fill="#fb8c00"/>
    <rect id="Rectángulo_45226-2" data-name="Rectángulo 45226" width="4.202" height="4.203" transform="translate(759.753 574.186) rotate(-90)" fill="#fb8c00"/>
    <rect id="Rectángulo_45232-2" data-name="Rectángulo 45232" width="4.203" height="4.203" transform="translate(750.823 529.534) rotate(-90)" fill="#fb8c00"/>
    <rect id="Rectángulo_45233-2" data-name="Rectángulo 45233" width="4.203" height="4.203" transform="translate(750.823 538.465) rotate(-90)" fill="#fb8c00"/>
    <rect id="Rectángulo_45234-2" data-name="Rectángulo 45234" width="4.203" height="4.203" transform="translate(750.823 547.395) rotate(-90)" fill="#fb8c00"/>
    <rect id="Rectángulo_45235-2" data-name="Rectángulo 45235" width="4.202" height="4.203" transform="translate(750.823 556.325) rotate(-90)" fill="#fb8c00"/>
    <rect id="Rectángulo_45236-2" data-name="Rectángulo 45236" width="4.203" height="4.203" transform="translate(750.823 565.256) rotate(-90)" fill="#fb8c00"/>
    <rect id="Rectángulo_45237-2" data-name="Rectángulo 45237" width="4.202" height="4.203" transform="translate(750.823 574.186) rotate(-90)" fill="#fb8c00"/>
    <rect id="Rectángulo_45243-2" data-name="Rectángulo 45243" width="4.203" height="4.203" transform="translate(741.892 529.534) rotate(-90)" fill="#fb8c00"/>
    <rect id="Rectángulo_45244-2" data-name="Rectángulo 45244" width="4.203" height="4.203" transform="translate(741.892 538.465) rotate(-90)" fill="#fb8c00"/>
    <rect id="Rectángulo_45245-2" data-name="Rectángulo 45245" width="4.203" height="4.203" transform="translate(741.892 547.395) rotate(-90)" fill="#fb8c00"/>
    <rect id="Rectángulo_45246-2" data-name="Rectángulo 45246" width="4.202" height="4.203" transform="translate(741.892 556.325) rotate(-90)" fill="#fb8c00"/>
    <rect id="Rectángulo_45247-2" data-name="Rectángulo 45247" width="4.203" height="4.203" transform="translate(741.892 565.256) rotate(-90)" fill="#fb8c00"/>
    <rect id="Rectángulo_45248-2" data-name="Rectángulo 45248" width="4.202" height="4.203" transform="translate(741.892 574.186) rotate(-90)" fill="#fb8c00"/>
    <rect id="Rectángulo_45221-3" data-name="Rectángulo 45221" width="4.203" height="4.203" transform="translate(785.797 582.533) rotate(-90)" fill="#fb8c00"/>
    <rect id="Rectángulo_45222-3" data-name="Rectángulo 45222" width="4.203" height="4.203" transform="translate(785.797 591.465) rotate(-90)" fill="#fb8c00"/>
    <rect id="Rectángulo_45232-3" data-name="Rectángulo 45232" width="4.203" height="4.203" transform="translate(776.867 582.533) rotate(-90)" fill="#fb8c00"/>
    <rect id="Rectángulo_45233-3" data-name="Rectángulo 45233" width="4.203" height="4.203" transform="translate(776.867 591.465) rotate(-90)" fill="#fb8c00"/>
    <rect id="Rectángulo_45243-3" data-name="Rectángulo 45243" width="4.203" height="4.203" transform="translate(767.937 582.533) rotate(-90)" fill="#fb8c00"/>
    <rect id="Rectángulo_45244-3" data-name="Rectángulo 45244" width="4.203" height="4.203" transform="translate(767.937 591.465) rotate(-90)" fill="#fb8c00"/>
    <rect id="Rectángulo_45221-4" data-name="Rectángulo 45221" width="4.203" height="4.203" transform="translate(759.753 582.533) rotate(-90)" fill="#fb8c00"/>
    <rect id="Rectángulo_45222-4" data-name="Rectángulo 45222" width="4.203" height="4.203" transform="translate(759.753 591.465) rotate(-90)" fill="#fb8c00"/>
    <rect id="Rectángulo_45232-4" data-name="Rectángulo 45232" width="4.203" height="4.203" transform="translate(750.823 582.533) rotate(-90)" fill="#fb8c00"/>
    <rect id="Rectángulo_45233-4" data-name="Rectángulo 45233" width="4.203" height="4.203" transform="translate(750.823 591.465) rotate(-90)" fill="#fb8c00"/>
    <rect id="Rectángulo_45243-4" data-name="Rectángulo 45243" width="4.203" height="4.203" transform="translate(741.892 582.533) rotate(-90)" fill="#fb8c00"/>
    <rect id="Rectángulo_45244-4" data-name="Rectángulo 45244" width="4.203" height="4.203" transform="translate(741.892 591.465) rotate(-90)" fill="#fb8c00"/>
  </g>
</svg>
