<svg xmlns="http://www.w3.org/2000/svg" xmlns:xlink="http://www.w3.org/1999/xlink" width="73" height="73" viewBox="0 0 73 73">
  <defs>
    <clipPath id="clip-path">
      <rect id="Rect치ngulo_295642" data-name="Rect치ngulo 295642" width="65.6" height="61.194" fill="#b2ebf2"/>
    </clipPath>
  </defs>
  <g id="Grupo_889202" data-name="Grupo 889202" transform="translate(-764 -2190)">
    <rect id="Rect치ngulo_295655" data-name="Rect치ngulo 295655" width="73" height="73" transform="translate(764 2190)" fill="none"/>
    <g id="Grupo_889198" data-name="Grupo 889198" transform="translate(768 2196)">
      <g id="Grupo_889197" data-name="Grupo 889197" clip-path="url(#clip-path)">
        <path id="Trazado_600775" data-name="Trazado 600775" d="M65.245,4.74A7.543,7.543,0,0,0,58.324.015Q32.834.012,7.344,0A7.542,7.542,0,0,0,0,7.327C.057,22.807.021,38.287.023,53.766A7.032,7.032,0,0,0,3.989,60.22a9.331,9.331,0,0,0,4.708.966q23.251.016,46.5.005a32.966,32.966,0,0,0,3.64-.119A7.555,7.555,0,0,0,64.216,58.1,6.375,6.375,0,0,0,65.6,54.6V6.611a12.993,12.993,0,0,0-.354-1.871M63.67,53.182a5.529,5.529,0,0,1-4.433,5.691,7.08,7.08,0,0,1-1.462.111q-24.947.008-49.9,0a5.531,5.531,0,0,1-5.868-5.9q0-19.03-.017-38.061c0-.587.168-.685.707-.682,4.307.023,8.614.013,12.921.013.191,0,.384.009.575-.009a.966.966,0,1,0,.006-1.931c-.19-.019-.384-.009-.575-.009-4.285,0-8.571-.019-12.857.019-.679.006-.806-.2-.772-.81a48.7,48.7,0,0,1,.123-4.98A5.426,5.426,0,0,1,7.189,2.116c.936-.045,1.876-.025,2.814-.025q11.418,0,22.836,0,12.506,0,25.012,0A5.516,5.516,0,0,1,63.492,6.26a5.974,5.974,0,0,1,.181,1.518c-.006,1.343-.03,2.687.013,4.029.017.528-.164.676-.642.607a2.716,2.716,0,0,0-.383,0q-20.694,0-41.387,0a4.37,4.37,0,0,0-.827.053.941.941,0,0,0,.026,1.849,4.74,4.74,0,0,0,.828.044q20.82,0,41.643-.01c.547,0,.745.09.744.707q-.032,19.062-.018,38.125" transform="translate(0 0)" fill="#b2ebf2"/>
        <path id="Trazado_600776" data-name="Trazado 600776" d="M95.007,73.062c-.517-.08-.628-.384-.3-.808a1.923,1.923,0,0,0-.107-2.711q-.879-.928-1.807-1.81a1.936,1.936,0,0,0-2.713-.11c-.179.14-.318.247-.563.148s-.262-.279-.286-.5a1.873,1.873,0,0,0-1.87-1.812c-.936-.04-1.877-.041-2.813,0a1.909,1.909,0,0,0-1.861,1.832c-.019.2.037.4-.237.527-.3.143-.429-.053-.6-.2a1.868,1.868,0,0,0-1.283-.481,1.9,1.9,0,0,0-1.432.6c-.61.6-1.22,1.192-1.808,1.81a1.951,1.951,0,0,0-.063,2.763c.124.145.355.225.233.524s-.326.211-.523.229a2.006,2.006,0,0,0-1.949,2.109c-.011.768-.007,1.535,0,2.3a1.994,1.994,0,0,0,2.013,2.167c.186.016.388-.04.5.19.126.27-.094.382-.228.535a1.961,1.961,0,0,0,.071,2.856q.845.873,1.721,1.715a1.949,1.949,0,0,0,2.854.07c.144-.125.226-.356.524-.23s.19.346.2.535A1.95,1.95,0,0,0,84.7,87.262q1.278.026,2.558,0a1.919,1.919,0,0,0,1.988-1.9c.016-.2-.046-.427.227-.537s.384.074.546.208a1.926,1.926,0,0,0,2.759-.038c.654-.611,1.291-1.243,1.9-1.9a1.891,1.891,0,0,0,.094-2.564c-.465-.609-.392-.805.34-.9A1.953,1.953,0,0,0,96.9,77.58c.008-.767,0-1.535,0-2.3a1.994,1.994,0,0,0-1.894-2.215m-.027,2.385c-.029.3-.006.6-.006.9V76.6c0,1.012,0,1.016-1.02,1.107a1.019,1.019,0,0,0-.952.721,8.7,8.7,0,0,1-.52,1.23,1.074,1.074,0,0,0,.253,1.531c.557.426.481.752-.023,1.157a10.808,10.808,0,0,0-1.09,1.079c-.19.2-.32.2-.507-.006a3.816,3.816,0,0,0-.7-.652c-.625-.419-2.92.553-3.08,1.288a1.809,1.809,0,0,0-.023.318c-.035.963-.034.963-1.025.963-.107,0-.213,0-.32,0-.425-.007-.945.132-1.247-.065s-.067-.749-.111-1.144a.979.979,0,0,0-.652-.864c-.472-.191-.944-.384-1.407-.6a1.147,1.147,0,0,0-1.487.514c-.365.47-.639.434-1,0a8.53,8.53,0,0,0-1.084-1.085c-.323-.273-.254-.43.014-.7.938-.929.926-.939.4-2.135-.069-.155-.124-.317-.183-.476-.367-.983-.5-1.116-1.531-1.065-.6.029-.787-.16-.725-.741a6.974,6.974,0,0,0,0-1.406c-.05-.505.155-.648.615-.583a3.353,3.353,0,0,0,.511,0,.953.953,0,0,0,.951-.707,8.976,8.976,0,0,1,.5-1.239,1.108,1.108,0,0,0-.268-1.482c-.614-.594-.6-.608.013-1.22.317-.316.649-.619.944-.955.241-.275.435-.372.678-.016a2.572,2.572,0,0,0,.313.319,1.022,1.022,0,0,0,1.329.22,10.078,10.078,0,0,1,1.107-.486c.837-.316.989-.492.958-1.415-.016-.472.073-.692.609-.639a12.679,12.679,0,0,0,1.662.007c.306-.011.443.039.451.4.028,1.249.047,1.248,1.217,1.676.179.066.355.141.529.22,1.092.5,1.131.5,1.995-.338.223-.218.359-.283.6-.018.43.472.887.922,1.356,1.357.23.213.242.377-.006.553a1.368,1.368,0,0,0-.331,2.1,2.472,2.472,0,0,1,.2.466c.427,1.156.425,1.172,1.62,1.186.357,0,.5.093.468.464" transform="translate(-37.441 -32.649)" fill="#b2ebf2"/>
        <path id="Trazado_600777" data-name="Trazado 600777" d="M52.892,42.42a3.131,3.131,0,0,0,.574.014h28.78a3.227,3.227,0,0,0,.575-.012.9.9,0,0,0,.838-.96.9.9,0,0,0-.854-.941,3.921,3.921,0,0,0-.575-.01H53.513a4.782,4.782,0,0,0-.575.008.957.957,0,0,0-.047,1.9" transform="translate(-25.98 -20.213)" fill="#b2ebf2"/>
        <path id="Trazado_600778" data-name="Trazado 600778" d="M52.945,56.477a4.833,4.833,0,0,0,.512.006H82.236a3.277,3.277,0,0,0,.575-.012.957.957,0,0,0-.012-1.9,3.852,3.852,0,0,0-.575-.011H53.508a4.783,4.783,0,0,0-.575.008.928.928,0,0,0-.883.927.954.954,0,0,0,.895.983" transform="translate(-25.973 -27.223)" fill="#b2ebf2"/>
        <path id="Trazado_600779" data-name="Trazado 600779" d="M44.155,96.735a2.1,2.1,0,0,0-.509-.021H20.871a2,2,0,0,0-.509.026.917.917,0,0,0-.76.968.9.9,0,0,0,.817.916,3.656,3.656,0,0,0,.638.017H43.512a3.928,3.928,0,0,0,.575-.013.894.894,0,0,0,.847-.883.912.912,0,0,0-.779-1.011" transform="translate(-9.781 -48.259)" fill="#b2ebf2"/>
        <path id="Trazado_600780" data-name="Trazado 600780" d="M44.411,82.681a2.511,2.511,0,0,0-.574-.019H21.254a3,3,0,0,0-.574.014.957.957,0,0,0-.007,1.895,3.128,3.128,0,0,0,.574.015H43.83a2.67,2.67,0,0,0,.574-.018.959.959,0,0,0,.007-1.886" transform="translate(-9.909 -41.247)" fill="#b2ebf2"/>
        <path id="Trazado_600781" data-name="Trazado 600781" d="M21.079,49.9a.967.967,0,0,0,1.044-.9.932.932,0,0,0-.9-1.024c-.845-.13-1.142-.437-1.193-1.295a9.608,9.608,0,0,0-.1-2.034,4.53,4.53,0,0,1,0-2.632,10.252,10.252,0,0,0,.1-2.1,1.137,1.137,0,0,1,1.117-1.234c.736-.125,1.072-.527.96-1.149a1.025,1.025,0,0,0-1.276-.762,3.012,3.012,0,0,0-2.709,2.784c-.065.655-.061,1.319-.061,1.979a.716.716,0,0,1-.555.806,1,1,0,0,0-.846.984.98.98,0,0,0,.842.985c.465.123.56.44.561.864a18.1,18.1,0,0,0,.066,1.979A3.023,3.023,0,0,0,21.079,49.9" transform="translate(-8.314 -18.341)" fill="#b2ebf2"/>
        <path id="Trazado_600782" data-name="Trazado 600782" d="M34.771,47.671c-.7.121-1.026.5-.942,1.106a1.009,1.009,0,0,0,1.242.806,3.012,3.012,0,0,0,2.743-2.749,20.1,20.1,0,0,0,.071-2.043.679.679,0,0,1,.517-.764A1.015,1.015,0,0,0,39.28,43a1,1,0,0,0-.863-.97c-.439-.115-.53-.416-.534-.815a19.4,19.4,0,0,0-.075-2.043A3.018,3.018,0,0,0,34.9,36.458a.971.971,0,0,0-1.079.857.931.931,0,0,0,.86,1.061c.924.152,1.178.434,1.242,1.384.012.17.017.341.017.511a4.468,4.468,0,0,0,.492,2.714,4.988,4.988,0,0,0-.494,2.77,5.486,5.486,0,0,1-.027.7,1.148,1.148,0,0,1-1.142,1.213" transform="translate(-16.874 -18.193)" fill="#b2ebf2"/>
        <path id="Trazado_600783" data-name="Trazado 600783" d="M90.244,14.33a3.033,3.033,0,0,0,3.027-2.991,3.012,3.012,0,1,0-3.027,2.991m-.02-4.093a1.084,1.084,0,0,1,1.118,1.057,1.083,1.083,0,1,1-2.166,0,1.069,1.069,0,0,1,1.048-1.057" transform="translate(-43.538 -4.146)" fill="#b2ebf2"/>
        <path id="Trazado_600784" data-name="Trazado 600784" d="M57.21,68.613q-5.5-.005-11,0c-.757,0-1.184.343-1.2.938-.017.624.421.987,1.211.988q2.75.005,5.5,0c1.834,0,3.667,0,5.5,0,.742,0,1.168-.364,1.165-.967s-.428-.957-1.176-.958" transform="translate(-22.46 -34.238)" fill="#b2ebf2"/>
        <path id="Trazado_600785" data-name="Trazado 600785" d="M72.837,14.331a3.052,3.052,0,0,0,3.032-3,3.01,3.01,0,0,0-3.048-3.026,2.977,2.977,0,0,0-2.983,3.011,3.009,3.009,0,0,0,3,3.01m.016-4.093a1.1,1.1,0,0,1,1.081,1.1A1.126,1.126,0,0,1,72.8,12.4a1.089,1.089,0,0,1-1.029-1.145,1.05,1.05,0,0,1,1.079-1.016" transform="translate(-34.85 -4.146)" fill="#b2ebf2"/>
        <path id="Trazado_600786" data-name="Trazado 600786" d="M107.647,14.331a3.014,3.014,0,0,0,3.018-2.994,3.015,3.015,0,1,0-6.029-.02,3.043,3.043,0,0,0,3.011,3.013m-.039-4.093a1.064,1.064,0,0,1,1.125,1.041,1.1,1.1,0,0,1-1.062,1.121,1.123,1.123,0,0,1-1.106-1.089,1.092,1.092,0,0,1,1.042-1.074" transform="translate(-52.215 -4.146)" fill="#b2ebf2"/>
        <path id="Trazado_600787" data-name="Trazado 600787" d="M20.1,69.6c.016.571.442.932,1.137.936,1.172.008,2.344,0,3.516,0,1.15,0,2.3,0,3.451,0,.74,0,1.185-.367,1.19-.955s-.443-.968-1.177-.97q-3.484-.007-6.967,0c-.727,0-1.166.392-1.15.988" transform="translate(-10.028 -34.237)" fill="#b2ebf2"/>
        <path id="Trazado_600788" data-name="Trazado 600788" d="M91.822,77.141a5.048,5.048,0,0,0-.015,10.1,5.048,5.048,0,1,0,.015-10.1m-.007,8.166A3.11,3.11,0,1,1,94.952,82.2a3.128,3.128,0,0,1-3.137,3.109" transform="translate(-43.3 -38.495)" fill="#b2ebf2"/>
      </g>
    </g>
  </g>
</svg>
