<svg xmlns="http://www.w3.org/2000/svg" xmlns:xlink="http://www.w3.org/1999/xlink" width="73" height="73" viewBox="0 0 73 73">
  <defs>
    <clipPath id="clip-path">
      <rect id="Rectángulo_295669" data-name="Rectángulo 295669" width="64.734" height="64.726" fill="#b2ebf2"/>
    </clipPath>
  </defs>
  <g id="Grupo_889206" data-name="Grupo 889206" transform="translate(-1785 9460)">
    <rect id="Rectángulo_295650" data-name="Rectángulo 295650" width="73" height="73" transform="translate(1785 -9460)" fill="none"/>
    <g id="Grupo_889205" data-name="Grupo 889205" transform="translate(1789 -9456)">
      <g id="Grupo_889204" data-name="Grupo 889204" clip-path="url(#clip-path)">
        <path id="Trazado_600798" data-name="Trazado 600798" d="M9.667,5.4C9.943,1.8,11.308.073,13.871.009a4.233,4.233,0,0,1,3.492,1.582,5.021,5.021,0,0,1,.963,3.768h2.165A4.721,4.721,0,0,1,22.361.772,4.205,4.205,0,0,1,25.233.022c2.454.238,3.659,1.864,3.931,5.327h2.127A4.75,4.75,0,0,1,32.854.994,4.149,4.149,0,0,1,35.72.009a4.251,4.251,0,0,1,3.3,1.691,5.278,5.278,0,0,1,.891,3.7h.778q3.775,0,7.549,0c1.01,0,1.376.369,1.377,1.385q0,8.325,0,16.649V24.3c.235-.208.4-.337.541-.482q2.386-2.381,4.767-4.766c.917-.918,1.217-.942,2.3-.115,1.028-1.037,2.065-2.087,3.105-3.132.951-.956,1.347-.956,2.289-.016.557.555,1.121,1.1,1.665,1.671a1.089,1.089,0,0,1-.008,1.761c-1.117,1.133-2.251,2.249-3.37,3.364.806,1.184.785,1.386-.21,2.38Q55.389,30.283,50.068,35.59a1.425,1.425,0,0,0-.457,1.116q.021,13.211.01,26.423c0,1.292-.3,1.6-1.574,1.6H1.538C.311,64.725,0,64.409,0,63.161Q0,35.053,0,6.946C0,5.707.311,5.4,1.551,5.4H9.667Zm26.57,32.342H29.159v-2.1h7.555V37.3c1.716-1.726,3.308-3.343,4.922-4.938a1.348,1.348,0,0,0,.442-1.055q-.019-11.528-.011-23.056c0-.217-.019-.434-.03-.651H33.423v3.145H31.255V7.589H22.639v3.148H20.471V7.6h-8.64v3.15H9.686V7.587H2.2V57.125H42.028V43.64c-1.477,1.479-2.856,2.885-4.271,4.254a3.347,3.347,0,0,1-1.175.734c-1.862.656-3.738,1.271-5.618,1.876a3.966,3.966,0,0,1-1.184.19q-7.517.018-15.034.008h-.683V48.545h.768q6.338,0,12.675,0c.625,0,1.409.189,1.831-.112s.492-1.1.693-1.7c.277-.812.532-1.631.827-2.541H21.61V42.072h.76c2.989,0,5.978.006,8.966-.009a1.23,1.23,0,0,0,.786-.228c1.34-1.3,2.647-2.626,4.116-4.1m11.194.462c-1.012,1.027-1.88,1.937-2.786,2.81a1.328,1.328,0,0,0-.427,1.061q.019,7.82.008,15.641c0,1.329-.291,1.62-1.618,1.62H2.192v3.194h45.24ZM52.9,24.356,34.087,43.161l2.578,2.576,18.81-18.808L52.9,24.356m-8.635,5.4c.978-.989,1.843-1.89,2.74-2.756a1.4,1.4,0,0,0,.468-1.111Q47.45,17.093,47.464,8.3V7.608h-3.2ZM16.138,5.363c.138-1.159.077-2.217-1.007-2.885a2.011,2.011,0,0,0-2.288.044c-1.043.685-1.055,1.726-.938,2.841Zm10.793.009c.13-1.216.054-2.3-1.1-2.94a2.012,2.012,0,0,0-2.283.143c-.981.7-.972,1.722-.856,2.8Zm6.549-.014h4.236c.127-1.154.075-2.215-1.013-2.881a2.014,2.014,0,0,0-2.288.048c-1.041.686-1.053,1.727-.935,2.834M54.538,22.566l2.679,2.674,1.5-1.432-2.68-2.686-1.5,1.443m7.04-4.764L58.8,20.579l.423.473,2.792-2.785-.439-.465M31.913,47.922l2.584-.87-1.708-1.771-.876,2.641" transform="translate(0 0)" fill="#b2ebf2"/>
        <rect id="Rectángulo_295656" data-name="Rectángulo 295656" width="16.105" height="2.075" transform="translate(14.067 29.163)" fill="#b2ebf2"/>
        <rect id="Rectángulo_295657" data-name="Rectángulo 295657" width="13.938" height="2.079" transform="translate(11.898 22.689)" fill="#b2ebf2"/>
        <rect id="Rectángulo_295658" data-name="Rectángulo 295658" width="11.804" height="2.067" transform="translate(7.586 42.123)" fill="#b2ebf2"/>
        <rect id="Rectángulo_295659" data-name="Rectángulo 295659" width="10.708" height="2.094" transform="translate(16.226 35.638)" fill="#b2ebf2"/>
        <rect id="Rectángulo_295660" data-name="Rectángulo 295660" width="9.623" height="2.074" transform="translate(19.472 16.231)" fill="#b2ebf2"/>
        <rect id="Rectángulo_295661" data-name="Rectángulo 295661" width="8.565" height="2.061" transform="translate(28.061 22.71)" fill="#b2ebf2"/>
        <rect id="Rectángulo_295662" data-name="Rectángulo 295662" width="6.399" height="2.075" transform="translate(7.582 35.647)" fill="#b2ebf2"/>
        <rect id="Rectángulo_295663" data-name="Rectángulo 295663" width="5.309" height="2.075" transform="translate(31.313 16.219)" fill="#b2ebf2"/>
        <rect id="Rectángulo_295664" data-name="Rectángulo 295664" width="4.254" height="2.051" transform="translate(7.566 29.178)" fill="#b2ebf2"/>
        <rect id="Rectángulo_295665" data-name="Rectángulo 295665" width="4.226" height="2.082" transform="translate(32.4 29.16)" fill="#b2ebf2"/>
        <rect id="Rectángulo_295666" data-name="Rectángulo 295666" width="4.228" height="2.075" transform="translate(7.588 48.599)" fill="#b2ebf2"/>
        <rect id="Rectángulo_295667" data-name="Rectángulo 295667" width="2.076" height="2.074" transform="translate(15.137 16.236)" fill="#b2ebf2"/>
        <rect id="Rectángulo_295668" data-name="Rectángulo 295668" width="2.059" height="2.095" transform="translate(7.594 22.669)" fill="#b2ebf2"/>
      </g>
    </g>
  </g>
</svg>
