<svg xmlns="http://www.w3.org/2000/svg" xmlns:xlink="http://www.w3.org/1999/xlink" width="73" height="73" viewBox="0 0 73 73">
  <defs>
    <clipPath id="clip-path">
      <rect id="Rectángulo_295675" data-name="Rectángulo 295675" width="66.649" height="66.62" fill="#b2ebf2"/>
    </clipPath>
  </defs>
  <g id="Grupo_889209" data-name="Grupo 889209" transform="translate(-1470 9457)">
    <rect id="Rectángulo_295649" data-name="Rectángulo 295649" width="73" height="73" transform="translate(1470 -9457)" fill="none"/>
    <g id="Grupo_889208" data-name="Grupo 889208" transform="translate(1473 -9454)">
      <g id="Grupo_889207" data-name="Grupo 889207" clip-path="url(#clip-path)">
        <path id="Trazado_600799" data-name="Trazado 600799" d="M64.369,86.49h2.185v2.172H31.083v3.027a3.353,3.353,0,0,1-3.021,3.655,3.315,3.315,0,0,1-.648,0H3.7A3.364,3.364,0,0,1,.019,91.635q0-12.479-.01-24.958A3.932,3.932,0,0,1,1.23,63.7Q4.807,60.174,8.34,56.6a3.858,3.858,0,0,1,2.91-1.2c5.245.02,10.494.093,15.738-.026a3.645,3.645,0,0,1,4.061,4.42H28.9c-.01-.213-.029-.434-.032-.657-.012-1.17-.352-1.507-1.545-1.509H11.115v5.032A3.4,3.4,0,0,1,7.287,66.5q-2.427,0-4.853.012a.863.863,0,0,0-.194.076V91.5c0,1.321.31,1.629,1.631,1.629H27.235c1.32,0,1.63-.31,1.632-1.63V88.755c-.675-.1-1.225-.236-1.658.579A3.161,3.161,0,0,1,23.5,90.764a3.318,3.318,0,0,1,.1-6.4,3.233,3.233,0,0,1,3.68,1.533.963.963,0,0,0,1.014.579c2.378-.029,4.756-.013,7.239-.013V80.082c0-1,.388-1.383,1.384-1.386h5.271V74.306c0-2.193.071-2.265,2.241-2.266q2.114,0,4.229-.013c.04,0,.079-.033.188-.079V67c0-1.314.309-1.619,1.639-1.619H55.5v-.693c0-1.571-.009-3.143,0-4.714a1.109,1.109,0,0,1,1.242-1.245q3.185-.018,6.379,0c.886,0,1.249.443,1.249,1.448V86.49Zm-6.606-25.5V86.45h4.344V60.989ZM51.1,67.631v18.8h4.343v-18.8Zm-2.291,6.692H44.459V86.441h4.354Zm-6.66,12.125V80.971H37.8V86.45ZM8.9,59.412,4.04,64.277c1.265,0,2.573.037,3.876-.016a1,1,0,0,0,.98-1.015c0-.018,0-.036,0-.053.016-1.265,0-2.531,0-3.78ZM24.449,86.486a1.106,1.106,0,1,0,1.091,1.12v-.019a1.117,1.117,0,0,0-1.106-1.107Z" transform="translate(0 -28.741)" fill="#b2ebf2"/>
        <path id="Trazado_600800" data-name="Trazado 600800" d="M66.989,27.237l-4.391,4.4c-.734.735-1.462,1.48-2.208,2.2-2.143,2.083-1.135,1.652-4.132,1.7-1.158.017-2.316,0-3.54,0v19.93H50.49V35.551c-.776,0-1.507-.034-2.231.025-.165.013-.334.323-.453.524A3.33,3.33,0,1,1,43.7,31.348a3.268,3.268,0,0,1,4.111,1.471.818.818,0,0,0,.837.52c2.865-.024,5.732,0,8.6-.024a1.229,1.229,0,0,0,.792-.275c2.3-2.27,4.587-4.565,6.873-6.854a1.69,1.69,0,0,0,.145-.2,14.382,14.382,0,0,1-5.7-11.5A14.052,14.052,0,0,1,63.022,4.8a14.466,14.466,0,1,1,3.964,22.44ZM72.656,2.393c-4.4-.126-9.282,3.919-10.645,8.772a12.255,12.255,0,0,0,5.73,13.907,11.95,11.95,0,0,0,13.2-.868c-2.547-2.865-5.082-5.741-7.647-8.588a2.387,2.387,0,0,1-.655-1.737c.026-3.58.012-7.159.012-10.74ZM74.9,13.31H85.869A11.976,11.976,0,0,0,74.894,2.4Zm7.75,9.476c1.9-1.991,3.349-5.324,3.156-7.154H76.291ZM46.023,34.428a1.1,1.1,0,1,0-1.1,1.108h.014a1.117,1.117,0,0,0,1.087-1.1Z" transform="translate(-21.599 0)" fill="#b2ebf2"/>
        <path id="Trazado_600801" data-name="Trazado 600801" d="M24.989,20.823c1.69-1.448,3.346-2.848,4.969-4.287a.947.947,0,0,0,.126-.766,3.315,3.315,0,1,1,6.056.962,3.213,3.213,0,0,1-3.653,1.447,1.277,1.277,0,0,0-1.4.32c-1.7,1.5-3.434,2.949-5.138,4.439a2.17,2.17,0,0,0-.547.832,3.281,3.281,0,0,1-2.867,2.287,3.135,3.135,0,0,1-3.218-1.719.766.766,0,0,0-.789-.483q-1.871.037-3.741,0a.71.71,0,0,0-.738.448,3.209,3.209,0,0,1-3.874,1.617.759.759,0,0,0-.893.242c-.8.83-1.614,1.653-2.452,2.446a.92.92,0,0,0-.28,1.075,3.067,3.067,0,0,1-1.106,3.405,3.1,3.1,0,0,1-3.567.391A3.171,3.171,0,0,1,.041,30.386a3.28,3.28,0,0,1,4.167-3.054.921.921,0,0,0,1.071-.29c.814-.851,1.675-1.658,2.477-2.519a.942.942,0,0,0,.182-.755,3.344,3.344,0,0,1,6.16-2.536.94.94,0,0,0,.67.393c1.27.037,2.541.03,3.811,0a.831.831,0,0,0,.605-.275c1.511-2.367,3.756-2.6,5.8-.528m9.437-5.856a1.1,1.1,0,1,0-1.088,1.121h.017a1.112,1.112,0,0,0,1.071-1.122Zm-24.4,7.73a1.1,1.1,0,1,0,1.156-1.051h-.016A1.116,1.116,0,0,0,10.029,22.7ZM22.24,21.647a1.1,1.1,0,1,0,1.091,1.117v-.017a1.113,1.113,0,0,0-1.091-1.1ZM3.361,29.412a1.1,1.1,0,1,0,1.111,1.1v-.017a1.112,1.112,0,0,0-1.111-1.083Z" transform="translate(-0.018 -6.064)" fill="#b2ebf2"/>
        <rect id="Rectángulo_295670" data-name="Rectángulo 295670" width="13.225" height="2.134" transform="translate(12.281 45.58)" fill="#b2ebf2"/>
        <rect id="Rectángulo_295671" data-name="Rectángulo 295671" width="11.003" height="2.132" transform="translate(5.598 51.116)" fill="#b2ebf2"/>
        <rect id="Rectángulo_295672" data-name="Rectángulo 295672" width="6.579" height="2.131" transform="translate(18.926 51.117)" fill="#b2ebf2"/>
        <rect id="Rectángulo_295673" data-name="Rectángulo 295673" width="4.354" height="2.143" transform="translate(5.615 45.579)" fill="#b2ebf2"/>
        <rect id="Rectángulo_295674" data-name="Rectángulo 295674" width="4.343" height="2.159" transform="translate(5.622 56.652)" fill="#b2ebf2"/>
      </g>
    </g>
  </g>
</svg>
