<svg xmlns="http://www.w3.org/2000/svg" xmlns:xlink="http://www.w3.org/1999/xlink" width="73" height="73" viewBox="0 0 73 73">
  <defs>
    <clipPath id="clip-path">
      <rect id="Rect치ngulo_295676" data-name="Rect치ngulo 295676" width="63.127" height="63.19" fill="#b2ebf2"/>
    </clipPath>
  </defs>
  <g id="Grupo_889216" data-name="Grupo 889216" transform="translate(-525 9468)">
    <rect id="Rect치ngulo_295646" data-name="Rect치ngulo 295646" width="73" height="73" transform="translate(525 -9468)" fill="none"/>
    <g id="Grupo_889215" data-name="Grupo 889215" transform="translate(530 -9463)">
      <g id="Grupo_889214" data-name="Grupo 889214" clip-path="url(#clip-path)">
        <path id="Trazado_600814" data-name="Trazado 600814" d="M0,61.654a13.67,13.67,0,0,1,1.052-2.593,12.31,12.31,0,0,1,2.061-2.17.7.7,0,0,0,.292-.809c-.634-2.689-.15-5.064,2.088-6.881a6.448,6.448,0,0,1,3.749-1.34A7.728,7.728,0,0,1,12.814,41.7a8.367,8.367,0,0,1,7.118-.9c.145-.353.274-.7.426-1.028a1.013,1.013,0,0,1,1.341-.644,1.024,1.024,0,0,1,.484,1.4c-.2.558-.411,1.116-.576,1.686-.259.89-.762,1.133-1.626.754a6.211,6.211,0,0,0-6.223.464,6.082,6.082,0,0,0-.564,9.468,6.608,6.608,0,0,0,1.78.928c.661.267.975.649.84,1.22a.98.98,0,0,1-1.354.683,6.974,6.974,0,0,1-4.837-4.835c-.117-.325-.2-.665-.289-.989C7.113,49.71,4.173,52,5.383,55.768a12.621,12.621,0,0,1,1.756.092A4.338,4.338,0,0,1,10.6,59.08a.977.977,0,1,1-1.865.568A2.4,2.4,0,0,0,6.791,57.8a3.665,3.665,0,0,0-1.781.256A4.931,4.931,0,0,0,2.047,63.29a4.04,4.04,0,0,0,4.038,3.253c2.522.1,5.051.024,7.671.024V64.221c0-.288-.009-.576,0-.863.03-.684.412-1.094,1-1.086a1,1,0,0,1,.984,1.111c.019.822.005,1.644.006,2.466,0,.22,0,.441,0,.73h9.175a2.013,2.013,0,0,0,2.207-1.993,2.922,2.922,0,0,0-1.263-3.055.964.964,0,0,1,.942-1.668,3.566,3.566,0,0,1,1.225.986,5.181,5.181,0,0,1,.714,5.237q-.067.171-.128.345c-.006.016.008.039.034.147h2.093c2.706,0,3.218.169,5.359,1.779.137-.279.263-.556.406-.824a4.727,4.727,0,0,1,5.616-2.288c.7.25,1.016.72.847,1.281-.184.61-.682.812-1.444.585a2.773,2.773,0,0,0-3.03.959,3.214,3.214,0,0,0-.3,3.313,6.243,6.243,0,0,0,5.926,3.586L46.036,75a4.489,4.489,0,0,1,4.039,2.294,22.067,22.067,0,0,1,1.341,3.092c.441,1.125.78,2.292,1.255,3.4a1.835,1.835,0,0,0,2.445.848,1.144,1.144,0,0,0,.576-1.408,8.525,8.525,0,0,1,.041-3.847,5.14,5.14,0,0,1,1.5-2.64,5.609,5.609,0,0,0,1.626-6.169c-.2-.728-.476-1.433-.718-2.153-.7.118-1.32.273-1.946.319A6.166,6.166,0,0,1,50.384,66.2a5.661,5.661,0,0,1-.771-1.974.923.923,0,0,1,.807-1.061,1.012,1.012,0,0,1,1.094.707,4.1,4.1,0,0,0,4.519,2.915,5.5,5.5,0,0,0,4.979-4.64,6.048,6.048,0,0,0-2.852-6.664,10.932,10.932,0,0,0-1.73-.789c-.974-.369-1.182-.778-.8-1.731a8.59,8.59,0,0,0,.087-6.94,5.923,5.923,0,0,0-3.087-3.127,1,1,0,1,1,.834-1.78,8.384,8.384,0,0,1,4.854,7.2,10.769,10.769,0,0,1-.6,4.713c2.938,1.288,4.923,3.367,5.325,6.629a8.4,8.4,0,0,1-3.2,7.86,13,13,0,0,1,1.241,4.555,6.606,6.606,0,0,1-2.036,5.588,5,5,0,0,0-1.538,4.58,7.385,7.385,0,0,1,.044,2.245,2.974,2.974,0,0,1-2.833,2.224,3.63,3.63,0,0,1-4.084-2.62c-.481-1.219-.867-2.476-1.3-3.715-.108-.31-.216-.619-.334-.925a3.444,3.444,0,0,0-3.7-2.518,15.37,15.37,0,0,1-3.485-.306,7.425,7.425,0,0,1-5.121-3.9c-.416-.707-.788-1.444-1.264-2.109a4.815,4.815,0,0,0-4.224-2.08c-8.282.035-16.563.006-24.845.006a6.209,6.209,0,0,1-6.284-5A.6.6,0,0,0,0,63.38V61.654" transform="translate(0 -23.549)" fill="#b2ebf2"/>
        <path id="Trazado_600815" data-name="Trazado 600815" d="M74.66,0c.738.159,1.486.283,2.213.481A13.124,13.124,0,0,1,79.823,24.6a1.692,1.692,0,0,0-1.052,1.857,6.352,6.352,0,0,1,0,.924A1.519,1.519,0,0,0,79.434,29a2.149,2.149,0,0,1,.63,1.445,17.9,17.9,0,0,1,.021,2.587,2.989,2.989,0,0,1-1.595,2.606,1.39,1.39,0,0,0-.589.675,4.715,4.715,0,0,1-9.059-.039,1.162,1.162,0,0,0-.5-.6,3.012,3.012,0,0,1-1.679-2.683c-.029-.842-.008-1.685-.006-2.528a2.109,2.109,0,0,1,.955-1.766,1.028,1.028,0,0,0,.358-.668c.05-.613-.015-1.234.025-1.848a1.426,1.426,0,0,0-.875-1.465,12.938,12.938,0,0,1-6.581-8.721A13.163,13.163,0,0,1,71.667.115,2.62,2.62,0,0,0,72.07,0ZM73.383,19.916c.217-.266.386-.47.551-.676.773-.96,1.536-1.928,2.32-2.879a.951.951,0,0,1,1.4-.24A1,1,0,0,1,77.78,17.6c-.084.116-.179.225-.269.337-.93,1.15-1.878,2.287-2.777,3.46a1.791,1.791,0,0,0-.345.992c-.033,1.787-.017,3.575-.014,5.363,0,.2.021.4.033.608h2.4c0-.824,0-1.6,0-2.379a3.011,3.011,0,0,1,1.728-2.9c.164-.085.326-.175.485-.267a11.2,11.2,0,1,0-10.994.139,3.318,3.318,0,0,1,1.934,3.282c-.027.71,0,1.421,0,2.116H72.4c0-1.982-.014-3.91.01-5.838a1.745,1.745,0,0,0-.438-1.224c-1.014-1.214-2.023-2.434-2.969-3.7a1.419,1.419,0,0,1-.151-1.121,1,1,0,0,1,.8-.512,1.427,1.427,0,0,1,.909.5c.948,1.107,1.847,2.255,2.82,3.459M68.626,30.4c0,.855-.012,1.653,0,2.451a1.037,1.037,0,0,0,1.1,1.137c.43.022.862.006,1.293.006,1.951,0,3.9,0,5.851,0,.718,0,1.189-.307,1.219-.869.048-.894.013-1.793.013-2.722Zm7.247,5.619H70.928a2.57,2.57,0,0,0,2.34,1.7,2.714,2.714,0,0,0,2.6-1.7" transform="translate(-36.308)" fill="#b2ebf2"/>
        <path id="Trazado_600816" data-name="Trazado 600816" d="M137.322,19.441h-4.178c-.794,0-1.268-.467-1.152-1.157a.907.907,0,0,1,.94-.805q4.332-.188,8.664-.354a.984.984,0,1,1,.027,1.954c-1.434.016-2.868,0-4.3,0v.358" transform="translate(-79.588 -10.326)" fill="#b2ebf2"/>
        <path id="Trazado_600817" data-name="Trazado 600817" d="M33.14,19.084c-1.414,0-2.828.01-4.242,0-.729-.007-1.165-.4-1.156-.994a1.013,1.013,0,0,1,1.183-.963q4.273.163,8.545.352a.992.992,0,0,1,1.033.993,1.024,1.024,0,0,1-1.123.971c-1.414.005-2.828,0-4.242,0v-.357" transform="translate(-16.73 -10.326)" fill="#b2ebf2"/>
        <path id="Trazado_600818" data-name="Trazado 600818" d="M54.806,71.427a4.5,4.5,0,0,1-2.546,4.262,1.024,1.024,0,0,1-1.489-.356c-.274-.528-.06-1.027.6-1.393a2.989,2.989,0,0,0,.4-4.88.985.985,0,1,1,1.181-1.573,4.528,4.528,0,0,1,1.759,3.059c.065.341.078.691.1.882" transform="translate(-30.548 -40.563)" fill="#b2ebf2"/>
        <path id="Trazado_600819" data-name="Trazado 600819" d="M120.9,86.069a2.787,2.787,0,0,0-2.787,1.516.942.942,0,0,1-1.3.434.977.977,0,0,1-.427-1.315,4.413,4.413,0,0,1,3.65-2.554,7.221,7.221,0,0,1,1.226-.032c.692.023,1.085.4,1.068.995s-.434.947-1.12.956c-.1,0-.2,0-.307,0" transform="translate(-70.124 -50.721)" fill="#b2ebf2"/>
        <path id="Trazado_600820" data-name="Trazado 600820" d="M136.974,28.569c0,.809-.633,1.34-1.225,1.113-1.277-.489-2.538-1.027-3.781-1.6a.866.866,0,0,1-.43-1.2.856.856,0,0,1,1.142-.564c1.3.5,2.573,1.047,3.831,1.634.247.115.372.489.463.617" transform="translate(-79.27 -15.832)" fill="#b2ebf2"/>
        <path id="Trazado_600821" data-name="Trazado 600821" d="M46.913,27.493c-.129.146-.318.53-.62.674-1.143.545-2.317,1.025-3.491,1.5a.977.977,0,0,1-1.327-.521.946.946,0,0,1,.541-1.268c1.156-.518,2.319-1.021,3.5-1.489.719-.286,1.4.169,1.4,1.1" transform="translate(-24.964 -15.864)" fill="#b2ebf2"/>
        <path id="Trazado_600822" data-name="Trazado 600822" d="M43.292,5.051c.366.149.581.217.778.319,1.019.532,2.036,1.065,3.047,1.61.66.355.863.867.583,1.406a1,1,0,0,1-1.485.328c-1.074-.557-2.142-1.127-3.208-1.7a.886.886,0,0,1-.486-1.186c.144-.323.524-.54.771-.779" transform="translate(-25.592 -3.046)" fill="#b2ebf2"/>
        <path id="Trazado_600823" data-name="Trazado 600823" d="M135.355,5.188c.194.187.611.4.678.7a1.218,1.218,0,0,1-.3,1.064c-1.19.721-2.433,1.362-3.687,1.97a.849.849,0,0,1-1.175-.492.848.848,0,0,1,.313-1.19c1.214-.686,2.461-1.313,3.7-1.958a2.427,2.427,0,0,1,.476-.1" transform="translate(-78.848 -3.129)" fill="#b2ebf2"/>
        <path id="Trazado_600824" data-name="Trazado 600824" d="M86.652,28.022c-.46.488-.854.932-1.276,1.348a1.03,1.03,0,0,1-1.7-.031c-.46-.468-.915-.943-1.373-1.414a.566.566,0,0,0-.107-.051l-1.44,1.447c-.627.63-1.119.646-1.741.028-.408-.4-.792-.833-1.249-1.316-.393.494-.726.922-1.069,1.343a1.015,1.015,0,0,1-1.493.306,1.027,1.027,0,0,1-.041-1.53c.523-.686,1.047-1.371,1.583-2.047a1.008,1.008,0,0,1,1.68-.117c.47.458.912.945,1.338,1.389.565-.537,1.088-1.023,1.6-1.522a1.028,1.028,0,0,1,1.7.008c.5.485,1.02.954,1.638,1.53.362-.4.772-.88,1.215-1.329a1.041,1.041,0,0,1,1.8.108q.781.992,1.543,2a1.028,1.028,0,0,1-.073,1.528,1,1,0,0,1-1.449-.3c-.338-.412-.66-.836-1.085-1.378" transform="translate(-45.137 -15.324)" fill="#b2ebf2"/>
      </g>
    </g>
  </g>
</svg>
