<svg xmlns="http://www.w3.org/2000/svg" width="73" height="73" viewBox="0 0 73 73">
  <g id="Grupo_889212" data-name="Grupo 889212" transform="translate(-840 9457)">
    <rect id="Rectángulo_295647" data-name="Rectángulo 295647" width="73" height="73" transform="translate(840 -9457)" fill="none"/>
    <g id="Grupo_889211" data-name="Grupo 889211" transform="translate(842 -9444)">
      <g id="Grupo_889213" data-name="Grupo 889213" transform="translate(0 0)">
        <path id="Trazado_600802" data-name="Trazado 600802" d="M63.781,71.666q-23.137.029-46.274.01c-3.592,0-7.185-.009-10.777.01-.466,0-.6-.113-.6-.591.022-3.076,0-6.152.015-9.228a3.62,3.62,0,0,1,3.908-3.836c1.5,0,3.009,0,4.513,0,.753,0,1.186-.365,1.2-.972.017-.636-.434-1.04-1.211-1.044-1.617-.009-3.234-.029-4.849.006a5.537,5.537,0,0,0-4.419,2.2,5.826,5.826,0,0,0-1.176,3.774c.017,3.053.007,6.107,0,9.16,0,.266.1.545-.363.633A5.316,5.316,0,0,0,0,74.582v.674c.676.772,1.383.886,1.819.187a3.852,3.852,0,0,1,3.67-1.758q29.037.029,58.074.013c.269,0,.539,0,.808.013a3.244,3.244,0,0,1,2.6,1.447c.662.939,1.267.96,2.027.1v-.674a5.528,5.528,0,0,0-5.219-2.916" transform="translate(0 -29.072)" fill="#b2ebf2"/>
        <path id="Trazado_600803" data-name="Trazado 600803" d="M38.522,17.651q0,8.96,0,17.92a5.553,5.553,0,0,0,.048.872,1.858,1.858,0,0,0,2.689,1.4,2.868,2.868,0,0,0,1.1-.868,1.167,1.167,0,0,1,1.093-.466q17.684.017,35.368.009c2.587,0,4.032,1.45,4.037,4.05q.005,2.762,0,5.524a1.2,1.2,0,0,0,.406,1.086.932.932,0,0,0,1.01.124,1.033,1.033,0,0,0,.6-1.035q0-2.863,0-5.726a7.041,7.041,0,0,0-.131-1.607A5.646,5.646,0,0,0,79.01,34.5Q65,34.49,50.985,34.5H44.633A3.484,3.484,0,0,1,47.9,32.611c10.1.063,20.211.006,30.316.054a2.857,2.857,0,0,0,3.125-3.147c-.084-3.973-.025-7.949-.026-11.924,0-2.049-.995-3.034-3.066-3.034H41.6c-2.108,0-3.083.976-3.083,3.091m2.021,17.58q0-8.791,0-17.582c0-.972.1-1.068,1.088-1.068H78.209c1,0,1.09.089,1.09,1.057q0,6,0,11.991c0,.9-.092.992-1.012.992q-15.325,0-30.65-.009a4.63,4.63,0,0,0-3.94,1.76c-.945,1.192-2.007,2.29-3.153,3.581Z" transform="translate(-19.999 -7.558)" fill="#b2ebf2"/>
        <path id="Trazado_600804" data-name="Trazado 600804" d="M47.036,65.661c-7.925-.02-15.85-.007-23.776-.008a4.481,4.481,0,0,0-2.318.579,4.294,4.294,0,0,0-2.008,4.794,4.238,4.238,0,0,0,4.09,3.191c4.041.022,8.082.007,12.124.008q5.859,0,11.719,0a5.408,5.408,0,0,0,1.272-.09,4.326,4.326,0,0,0,3.352-4.509,4.265,4.265,0,0,0-4.454-3.966m.852,6.45a3.123,3.123,0,0,1-1,.093q-5.861,0-11.721,0c-4.019,0-8.039.007-12.058,0a2.24,2.24,0,0,1-2.271-1.9,2.294,2.294,0,0,1,1.441-2.473,2.805,2.805,0,0,1,1.058-.152q11.822,0,23.645,0a2.274,2.274,0,0,1,.906,4.432" transform="translate(-9.76 -34.083)" fill="#b2ebf2"/>
        <path id="Trazado_600805" data-name="Trazado 600805" d="M91.875,69.205a4.524,4.524,0,1,0,9.047-.041,4.524,4.524,0,0,0-9.047.041m7.025.026A2.5,2.5,0,0,1,96.394,71.7a2.463,2.463,0,0,1-2.5-2.459,2.491,2.491,0,0,1,2.49-2.545,2.535,2.535,0,0,1,2.513,2.54" transform="translate(-47.698 -33.574)" fill="#b2ebf2"/>
        <path id="Trazado_600806" data-name="Trazado 600806" d="M116.759,71.446a10.185,10.185,0,0,0-.906.9,1.012,1.012,0,1,0,1.408,1.43c.711-.683,1.4-1.392,2.1-2.087a1.034,1.034,0,0,0,.323-.782.983.983,0,0,0-.309-.719c-.73-.728-1.446-1.47-2.191-2.183A.973.973,0,0,0,115.743,68a.989.989,0,0,0,.034,1.441,8,8,0,0,0,1,.99c.506.384.412.665-.022,1.017" transform="translate(-59.937 -35.139)" fill="#b2ebf2"/>
        <path id="Trazado_600807" data-name="Trazado 600807" d="M29.873,7.183a1.018,1.018,0,0,0,1.546.09c.423-.427.377-1.009-.146-1.544-.658-.673-1.333-1.329-2-2a1.315,1.315,0,0,0-.826-.428,1.011,1.011,0,0,0-.91.568.956.956,0,0,0,.195,1.171c.706.72,1.414,1.439,2.137,2.141" transform="translate(-14.237 -1.715)" fill="#b2ebf2"/>
        <path id="Trazado_600808" data-name="Trazado 600808" d="M39.565,4.521a.952.952,0,0,0,.953-.947c.029-.425.006-.853.006-1.279h.012q0-.573,0-1.145c0-.045,0-.09-.006-.135A1.029,1.029,0,0,0,39.558,0a.985.985,0,0,0-1.021.954c-.039.874-.039,1.752,0,2.626a.956.956,0,0,0,1.026.941" transform="translate(-19.992 0)" fill="#b2ebf2"/>
        <path id="Trazado_600809" data-name="Trazado 600809" d="M25.631,16.783c.381.02.763,0,1.145,0,.4,0,.81.019,1.213,0a1,1,0,0,0-.029-2.007c-.785-.023-1.572-.025-2.358,0a.969.969,0,0,0-.983.983.981.981,0,0,0,1.012,1.024" transform="translate(-12.781 -7.661)" fill="#b2ebf2"/>
        <path id="Trazado_600810" data-name="Trazado 600810" d="M50.39,32.746c.579.058,1.015-.306,1.236-1.011.425-1.354.841-2.711,1.307-4.215.473,1.525.9,2.909,1.331,4.295a1.135,1.135,0,0,0,1.227.928,1.194,1.194,0,0,0,1.126-1.069q.169-.857.342-1.713c.369-1.844.743-3.688,1.106-5.533a1.026,1.026,0,0,0-.735-1.308,1.01,1.01,0,0,0-1.251.9c-.053.24-.093.484-.142.725l-.691,3.4c-.455-1.481-.854-2.761-1.239-4.045-.165-.552-.406-1.022-1.07-1.017s-.9.459-1.063,1.021c-.379,1.283-.794,2.555-1.194,3.832l-.106-.006c-.26-1.295-.509-2.592-.784-3.883-.159-.746-.588-1.059-1.212-.944-.6.111-.89.6-.749,1.337q.693,3.6,1.4,7.188a1.244,1.244,0,0,0,1.162,1.119" transform="translate(-24.812 -11.981)" fill="#b2ebf2"/>
        <path id="Trazado_600811" data-name="Trazado 600811" d="M73.6,31.6a1.252,1.252,0,0,0,1.2,1.149c.691,0,1.025-.429,1.211-1.051.4-1.35.831-2.692,1.252-4.047a.934.934,0,0,1,.233.482c.364,1.2.736,2.4,1.1,3.593a1.23,1.23,0,0,0,1.238,1.029c.588,0,1.02-.458,1.167-1.186q.71-3.523,1.414-7.048c.151-.756-.138-1.3-.752-1.407-.645-.114-1.063.228-1.225,1.015q-.392,1.9-.776,3.805l-.112-.025c-.412-1.323-.829-2.645-1.232-3.971a1.041,1.041,0,0,0-.781-.829c-.59-.128-1.029.156-1.246.84-.423,1.338-.832,2.68-1.3,4.2-.3-1.506-.559-2.823-.841-4.134-.156-.724-.618-1.038-1.239-.9a.991.991,0,0,0-.717,1.3q.7,3.6,1.4,7.188" transform="translate(-37.464 -11.98)" fill="#b2ebf2"/>
        <path id="Trazado_600812" data-name="Trazado 600812" d="M97.494,31.681a1.2,1.2,0,0,0,2.372.062c.4-1.35.832-2.693,1.308-4.222.476,1.534.905,2.894,1.318,4.259a1.194,1.194,0,0,0,1.2.975,1.233,1.233,0,0,0,1.158-1.112c.209-.986.4-1.975.6-2.963.283-1.405.57-2.81.841-4.217a1.028,1.028,0,0,0-.762-1.348c-.627-.114-1.075.227-1.228.942-.056.263-.088.531-.152.791a23.846,23.846,0,0,1-.721,3.123c-.432-1.391-.851-2.711-1.249-4.039a1.012,1.012,0,0,0-.986-.849,1.029,1.029,0,0,0-1.047.866c-.126.406-.246.814-.372,1.22q-.435,1.4-.873,2.792c-.35-1.3-.6-2.567-.845-3.838-.107-.545-.333-.986-.965-1.04a.978.978,0,0,0-1.04,1.278q.692,3.665,1.434,7.32" transform="translate(-49.857 -11.982)" fill="#b2ebf2"/>
        <path id="Trazado_600813" data-name="Trazado 600813" d="M35.716,72.542q-4.076-.012-8.152,0c-.773,0-1.23.412-1.21,1.046.019.6.46.966,1.209.97,1.325.008,2.649,0,3.975,0,1.392,0,2.785.007,4.177,0,.752,0,1.167-.374,1.167-1s-.429-1.012-1.166-1.014" transform="translate(-13.682 -37.658)" fill="#b2ebf2"/>
      </g>
    </g>
  </g>
</svg>
