<svg xmlns="http://www.w3.org/2000/svg" xmlns:xlink="http://www.w3.org/1999/xlink" width="1328" height="696" viewBox="0 0 1328 696">
  <defs>
    <clipPath id="clip-path">
      <rect id="Rect치ngulo_32576" data-name="Rect치ngulo 32576" width="1328" height="381" transform="translate(136 3528)" fill="#e2f8fa"/>
    </clipPath>
    <clipPath id="clip-path-2">
      <rect id="Rect치ngulo_32577" data-name="Rect치ngulo 32577" width="1328" height="381" fill="#e2f8fa"/>
    </clipPath>
  </defs>
  <g id="Grupo_73807" data-name="Grupo 73807" transform="translate(15016.424 1611)">
    <g id="Enmascarar_grupo_83" data-name="Enmascarar grupo 83" transform="translate(-15152.424 -5139)" clip-path="url(#clip-path)">
      <path id="Trazado_108901" data-name="Trazado 108901" d="M1551.855,941.157c260.866,93.244,548.558,146.83,839.59,82.387,577.311-127.835,576.673-99.6,576.673-99.6v594.022H1053.877v-649.5S1254.765,834.965,1551.855,941.157Z" transform="translate(-1097.775 2793.29)" fill="#e2f8fa"/>
    </g>
    <g id="Enmascarar_grupo_84" data-name="Enmascarar grupo 84" transform="translate(-15016.424 -1296)" clip-path="url(#clip-path-2)">
      <path id="Trazado_108902" data-name="Trazado 108902" d="M1551.855,1440.263c260.866-93.244,548.558-146.83,839.59-82.387,577.311,127.835,576.673,99.6,576.673,99.6V863.452H1053.877v649.5S1254.765,1546.455,1551.855,1440.263Z" transform="translate(-1233.775 -1265.71)" fill="#e2f8fa"/>
    </g>
  </g>
</svg>
